<?xml version="1.0" encoding="UTF-8"?>
<svg version="1.1" xmlns="http://www.w3.org/2000/svg" width="779" height="320">
<path d="M0 0 C1.67448686 1.5541164 3.34078921 3.1170849 5 4.6875 C5.94617188 5.55761719 6.89234375 6.42773438 7.8671875 7.32421875 C16.23872731 15.19743633 22.79050187 24.04371075 29 33.6875 C29.41910645 34.33702637 29.83821289 34.98655273 30.27001953 35.65576172 C44.99561394 58.95484471 51.2283916 85.83286091 51.25 113.125 C51.25067474 113.88827606 51.25134949 114.65155212 51.25204468 115.43795776 C51.23650667 126.48490231 50.85789325 136.95605345 48 147.6875 C47.82839355 148.36409668 47.65678711 149.04069336 47.47998047 149.73779297 C40.09317851 178.57866677 24.60784451 201.98886483 5.5 224.5 C5.00757813 225.08112549 4.51515625 225.66225098 4.0078125 226.26098633 C-0.88326024 231.91122247 -0.88326024 231.91122247 -4 233.6875 C-7.66759732 232.46496756 -8.11912638 231.37112496 -10.1875 228.1875 C-20.7669038 212.74728905 -35.0593349 203.05147607 -53.53369141 199.12939453 C-57.85180601 198.3557074 -62.19568044 197.95336719 -66.5625 197.5625 C-67.93245117 197.43294922 -67.93245117 197.43294922 -69.33007812 197.30078125 C-71.55296584 197.09129445 -73.77619349 196.88695316 -76 196.6875 C-76.625 194.875 -76.625 194.875 -77 192.6875 C-74.49345325 188.92767987 -71.52073041 187.7922551 -67.5625 185.9375 C-44.33502964 174.60840888 -23.26449058 156.6055056 -8 135.6875 C-7.4225 134.90375 -6.845 134.12 -6.25 133.3125 C-4.44786181 130.80237895 -2.71229921 128.2597204 -1 125.6875 C-0.37351563 124.74648437 0.25296875 123.80546875 0.8984375 122.8359375 C4.98004638 116.46346513 8.48204357 109.94440639 11.75 103.125 C12.11464355 102.37033447 12.47928711 101.61566895 12.85498047 100.83813477 C15.81351328 94.51689429 17.75253205 88.42990386 20 81.6875 C-7.225 82.1825 -7.225 82.1825 -35 82.6875 C-36.98 88.2975 -38.96 93.9075 -41 99.6875 C-42.35854679 102.70087241 -43.6617074 105.51050828 -45.25 108.375 C-45.62640625 109.06867676 -46.0028125 109.76235352 -46.390625 110.47705078 C-50.36565231 117.62785032 -55.01660737 124.21173276 -60 130.6875 C-60.69480469 131.60660156 -61.38960937 132.52570313 -62.10546875 133.47265625 C-77.91765508 153.61613564 -100.54651016 173.79978582 -125 182.6875 C-126.32 182.6875 -127.64 182.6875 -129 182.6875 C-129 149.3575 -129 116.0275 -129 81.6875 C-145.17 81.6875 -161.34 81.6875 -178 81.6875 C-178 136.1375 -178 190.5875 -178 246.6875 C-185.07478479 242.44262912 -190.64459054 238.76618574 -196.4375 233.1875 C-197.53807739 232.13647095 -197.53807739 232.13647095 -198.66088867 231.06420898 C-205.15758995 224.74311352 -210.70419312 218.022698 -216 210.6875 C-216.99450384 209.34744259 -217.98930647 208.0076069 -218.984375 206.66796875 C-243.68969561 172.98852676 -255.53796262 133.65702472 -249.68359375 91.9296875 C-245.10224097 62.29044532 -232.53474781 34.80894627 -212.0078125 12.8515625 C-210.28645685 10.99624922 -208.70342909 9.10029126 -207.125 7.125 C-203.02268226 2.31070976 -197.97830224 -1.45163926 -193 -5.3125 C-192.1440625 -5.98410156 -191.288125 -6.65570313 -190.40625 -7.34765625 C-133.92695067 -50.13242668 -52.99807959 -46.6887844 0 0 Z M-172 25.6875 C-177.19257313 31.43359615 -179.51503589 37.73396716 -179.2421875 45.5859375 C-178.32691557 53.52813587 -175.02858522 59.45514302 -169 64.6875 C-162.03329479 69.65338676 -155.41924014 70.73553819 -147 69.6875 C-140.24150414 68.28283817 -134.72425952 64.50146333 -130.7109375 58.8828125 C-126.65845428 52.08980106 -126.17503802 45.46708336 -127 37.6875 C-129.20982387 30.38682021 -133.53331208 24.72917995 -140 20.6875 C-151.55231218 15.75663505 -162.78044261 16.91080344 -172 25.6875 Z " fill="#A1E239" transform="translate(254,41.3125)"/>
<path d="M0 0 C1.67448686 1.5541164 3.34078921 3.1170849 5 4.6875 C5.94617188 5.55761719 6.89234375 6.42773438 7.8671875 7.32421875 C16.23872731 15.19743633 22.79050187 24.04371075 29 33.6875 C29.41910645 34.33702637 29.83821289 34.98655273 30.27001953 35.65576172 C44.99561394 58.95484471 51.2283916 85.83286091 51.25 113.125 C51.25067474 113.88827606 51.25134949 114.65155212 51.25204468 115.43795776 C51.23650667 126.48490231 50.85789325 136.95605345 48 147.6875 C47.82839355 148.36409668 47.65678711 149.04069336 47.47998047 149.73779297 C43.57134766 164.99857648 38.17137523 179.78067103 29 192.6875 C28.34 192.0275 27.68 191.3675 27 190.6875 C27.38671875 189.81609375 27.7734375 188.9446875 28.171875 188.046875 C41.16463274 158.33076571 45.78520648 122.26229108 36 90.6875 C35.78569336 89.99398437 35.57138672 89.30046875 35.35058594 88.5859375 C31.29546979 75.97789079 25.48922443 63.61127321 18 52.6875 C17.566875 51.924375 17.13375 51.16125 16.6875 50.375 C-1.13291421 21.99434034 -33.31111963 0.4517545 -65.69140625 -7.3828125 C-80.42327607 -10.66529717 -94.98607106 -10.63614699 -110 -10.3125 C-111.30195313 -10.29445313 -112.60390625 -10.27640625 -113.9453125 -10.2578125 C-138.90893848 -9.25454621 -165.78436376 1.80518842 -185 17.6875 C-185.85851562 18.36425781 -186.71703125 19.04101562 -187.6015625 19.73828125 C-198.77148707 28.64652688 -207.4055819 38.37137187 -215.71826172 49.91503906 C-216.73311195 51.31843195 -217.77080944 52.7053 -218.81640625 54.0859375 C-226.89169027 65.21970784 -231.84926172 79.38366051 -235.41381836 92.56933594 C-235.83437382 94.08901072 -236.29888214 95.59678043 -236.79125977 97.09472656 C-239.54689827 106.29267808 -239.42184824 115.36644215 -239.33618164 124.87792969 C-239.31254692 127.68193336 -239.31564529 130.48498396 -239.32226562 133.2890625 C-239.30368785 146.0826252 -238.25455838 157.84006264 -234.25 170.0625 C-233.9926709 170.86469971 -233.7353418 171.66689941 -233.47021484 172.4934082 C-231.08487775 179.75994539 -228.19548729 186.74128117 -225 193.6875 C-225.99 193.6875 -226.98 193.6875 -228 193.6875 C-249.15738118 158.05625644 -256.61506504 117.7874459 -246.80249023 77.203125 C-240.53604009 53.01235679 -229.09201648 31.12630335 -212.0078125 12.8515625 C-210.28645685 10.99624922 -208.70342909 9.10029126 -207.125 7.125 C-203.02268226 2.31070976 -197.97830224 -1.45163926 -193 -5.3125 C-192.1440625 -5.98410156 -191.288125 -6.65570313 -190.40625 -7.34765625 C-133.92695067 -50.13242668 -52.99807959 -46.6887844 0 0 Z " fill="#648630" transform="translate(254,41.3125)"/>
<path d="M0 0 C0.76443924 -0.00570007 1.52887848 -0.01140015 2.31648254 -0.01727295 C3.94656993 -0.02674954 5.5766767 -0.03326742 7.20678711 -0.03710938 C9.6518972 -0.04665965 12.09610885 -0.07758749 14.54101562 -0.109375 C29.42577279 -0.21092108 45.47730369 1.02837268 57.08203125 11.578125 C66.25637466 21.9491219 69.15160642 32.88165598 68.79296875 46.49609375 C67.93275264 58.15816648 64.22965681 67.15907808 55.39453125 75.1171875 C53.48657212 76.58429244 51.5499576 77.91305062 49.51953125 79.203125 C48.75640625 79.76 47.99328125 80.316875 47.20703125 80.890625 C35.92631035 86.39981428 24.06186916 85.55358019 11.83203125 85.390625 C9.85873417 85.37555177 7.88542595 85.36186803 5.91210938 85.34960938 C1.11430496 85.31681095 -3.68295712 85.26517413 -8.48046875 85.203125 C-8.50359172 74.26816029 -8.5213836 63.33320134 -8.53228092 52.3982172 C-8.53750985 47.32121482 -8.54460767 42.24422911 -8.5559082 37.16723633 C-8.56673674 32.27191948 -8.57274551 27.37661871 -8.57534599 22.48129082 C-8.5772003 20.60929549 -8.58082103 18.73730109 -8.58619881 16.86531258 C-8.59340879 14.25271801 -8.59445971 11.64019073 -8.59399414 9.02758789 C-8.59758942 8.24572113 -8.60118469 7.46385437 -8.60488892 6.65829468 C-8.59052708 -0.74025994 -6.72535994 0.03870922 0 0 Z M13.51953125 19.203125 C13.51953125 34.713125 13.51953125 50.223125 13.51953125 66.203125 C20.86700197 68.65228191 28.53528647 67.25584126 35.51953125 64.203125 C41.41589783 60.69231131 44.82049786 55.82733256 46.51953125 49.203125 C47.55845757 40.24238551 46.29290435 33.44475445 41.39453125 25.953125 C32.86835769 17.79765463 26.08052485 19.203125 13.51953125 19.203125 Z " fill="#FEFEFE" transform="translate(576.48046875,135.796875)"/>
<path d="M0 0 C3.92966735 3.56580926 6.69351997 7.66112433 9.3125 12.25 C9.72886719 12.930625 10.14523437 13.61125 10.57421875 14.3125 C15.36861317 23.73306447 14.82605761 36.88770031 12.4296875 46.9609375 C7.71847197 59.09777752 -0.86399512 67.8995219 -12.5 73.63671875 C-23.50077555 77.89652993 -35.8924364 77.83799347 -46.875 73.5703125 C-58.69812916 68.0200102 -66.78334984 60.47340944 -71.6875 48.25 C-75.33732886 37.84798774 -75.1763656 25.36265194 -70.6875 15.25 C-64.4770992 2.61638092 -55.65568273 -5.0100295 -42.3046875 -9.5625 C-27.23274997 -13.45203226 -12.06390607 -9.50888666 0 0 Z M-46.5 16.25 C-52.18967515 24.05298306 -51.88357726 32.87449858 -50.6875 42.25 C-48.58452677 48.33470564 -44.34275661 52.32440548 -38.75 55.375 C-32.44823254 58.0484771 -27.35138792 57.38364991 -20.94921875 55.1875 C-15.31876473 52.85363305 -13.01547132 49.56115294 -10.484375 44.25 C-7.72131617 37.31526411 -7.46334285 28.87191578 -9.9375 21.8125 C-12.47231546 16.65233996 -15.15926383 12.74224645 -20.3671875 9.98046875 C-30.2719918 6.86228962 -39.65576021 8.50106185 -46.5 16.25 Z " fill="#FEFEFE" transform="translate(760.6875,145.75)"/>
<path d="M0 0 C3.47914941 -0.02887814 6.95826831 -0.04675687 10.4375 -0.0625 C11.92733398 -0.07506836 11.92733398 -0.07506836 13.44726562 -0.08789062 C14.39150391 -0.09111328 15.33574219 -0.09433594 16.30859375 -0.09765625 C17.62041626 -0.10551147 17.62041626 -0.10551147 18.95874023 -0.11352539 C21 0 21 0 22 1 C22.10751689 2.75302681 22.14625271 4.51031813 22.15771484 6.26660156 C22.16797699 7.39157043 22.17823914 8.51653931 22.18881226 9.67559814 C22.19611359 10.90155701 22.20341492 12.12751587 22.2109375 13.390625 C22.23900998 15.96224591 22.26767447 18.53386041 22.296875 21.10546875 C22.33930279 25.17851313 22.37605117 29.25151887 22.40136719 33.32470703 C22.42637695 37.24273111 22.47483021 41.16032106 22.5234375 45.078125 C22.52669037 46.29598694 22.52994324 47.51384888 22.53329468 48.76861572 C22.55814438 50.47498199 22.55814438 50.47498199 22.58349609 52.21582031 C22.59158295 53.21429993 22.5996698 54.21277954 22.60800171 55.24151611 C23.06677998 58.46992936 24.11050436 60.36498932 26 63 C30.23379774 65.9134866 35.06206203 65.52104865 40 65 C43.78992911 63.38726421 45.83882244 61.47279675 48 58 C48.46268792 55.30635599 48.46268792 55.30635599 48.41650391 52.3293457 C48.43307037 51.19169266 48.44963684 50.05403961 48.46670532 48.88191223 C48.46995819 47.65888901 48.47321106 46.43586578 48.4765625 45.17578125 C48.49214203 43.91863815 48.50772156 42.66149506 48.52377319 41.36625671 C48.5632629 38.03095568 48.59060526 34.69603399 48.61126709 31.3605957 C48.64285845 26.64913071 48.69424225 21.93786935 48.74765015 17.22660828 C48.77498064 14.71821439 48.79628624 12.20974669 48.81118774 9.70124817 C48.82658096 8.00895332 48.82658096 8.00895332 48.84228516 6.2824707 C48.84878082 5.28415726 48.85527649 4.28584381 48.86196899 3.25727844 C49 1 49 1 50 0 C51.56172745 -0.08685603 53.12729344 -0.10702219 54.69140625 -0.09765625 C55.63564453 -0.09443359 56.57988281 -0.09121094 57.55273438 -0.08789062 C58.54595703 -0.07951172 59.53917969 -0.07113281 60.5625 -0.0625 C61.55958984 -0.05798828 62.55667969 -0.05347656 63.58398438 -0.04882812 C66.05604849 -0.03700007 68.52799518 -0.02051849 71 0 C71.74609697 3.34314554 72.13273959 6.4521651 72.16113281 9.87524414 C72.17074036 10.81715103 72.1803479 11.75905792 72.19024658 12.72950745 C72.19449646 13.73787155 72.19874634 14.74623566 72.203125 15.78515625 C72.20882507 16.83722763 72.21452515 17.88929901 72.22039795 18.97325134 C72.22983369 21.19984944 72.23637626 23.42646142 72.24023438 25.65307617 C72.24989584 29.02613395 72.28091518 32.3985706 72.3125 35.77148438 C72.31903526 37.94270474 72.32428367 40.11392944 72.328125 42.28515625 C72.3404718 43.27935074 72.3528186 44.27354523 72.36553955 45.29786682 C72.33059222 56.52317299 70.2615795 67.19877132 62.5625 75.6875 C61.716875 76.450625 60.87125 77.21375 60 78 C59.319375 78.680625 58.63875 79.36125 57.9375 80.0625 C48.0793618 86.56467626 36.58951164 87.41985097 25.140625 85.52734375 C16.45217428 83.27428277 9.66899394 78.54401829 4.2890625 71.41796875 C0.60103917 64.50013105 -0.49282068 57.75706065 -0.6875 50 C-0.72020996 49.04246826 -0.75291992 48.08493652 -0.78662109 47.09838867 C-1.06067066 37.83942833 -1.10134026 28.5749711 -1.125 19.3125 C-1.12776947 18.58023193 -1.13053894 17.84796387 -1.13339233 17.09350586 C-1.13919421 14.99587875 -1.1374027 12.89840869 -1.1328125 10.80078125 C-1.13168457 9.58559814 -1.13055664 8.37041504 -1.12939453 7.1184082 C-1.0225017 4.54229105 -0.76332967 2.44500482 0 0 Z " fill="#FEFEFE" transform="translate(484,136)"/>
<path d="M0 0 C5.26120642 5.78297896 6.23320827 10.04943721 8 18 C0.08 18 -7.84 18 -16 18 C-16.66 16.02 -17.32 14.04 -18 12 C-21.76598046 10.74467318 -25.06196288 10.56607907 -29 11 C-31.212981 11.87870914 -31.212981 11.87870914 -32 14 C-32.32026414 17.51305609 -32.32026414 17.51305609 -31 21 C-26.11643531 24.27242717 -21.12286319 26.13587019 -15.5625 27.9375 C-6.36987932 31.07208795 1.59747977 34.47995991 7 43 C9.76612167 49.23333409 9.39607742 55.70805913 7.31640625 62.1015625 C4.08856114 69.53277923 -1.68930872 74.31047691 -9.0625 77.4375 C-20.38849647 81.05617937 -32.21256827 79.68382382 -43 75 C-49.11407759 71.82900352 -52.1660388 67.77265176 -55.1875 61.66015625 C-56 59 -56 59 -56 52 C-48.41 52 -40.82 52 -33 52 C-32.01 54.31 -31.02 56.62 -30 59 C-28.24040765 60.27330693 -28.24040765 60.27330693 -26.1875 60.5 C-25.14142578 60.68175781 -25.14142578 60.68175781 -24.07421875 60.8671875 C-21.25620165 61.04762551 -18.73124183 60.68281046 -16 60 C-15.731875 58.783125 -15.46375 57.56625 -15.1875 56.3125 C-15.03667969 55.62800781 -14.88585937 54.94351563 -14.73046875 54.23828125 C-14.84025497 51.77926292 -14.84025497 51.77926292 -16.875 49.453125 C-20.92754562 46.27187669 -24.93763349 44.96201675 -29.8125 43.4375 C-47.13350787 37.87049449 -47.13350787 37.87049449 -51.375 32.5625 C-51.83648437 32.00691406 -52.29796875 31.45132813 -52.7734375 30.87890625 C-56.67338365 24.90478492 -56.68820485 18.92616421 -56 12 C-54.24725649 4.80043965 -50.08554587 0.07178342 -44 -4 C-30.26790342 -10.99462598 -12.01932503 -9.69835192 0 0 Z " fill="#FEFEFE" transform="translate(394,143)"/>
<path d="M0 0 C1.07651321 -0.00855011 1.07651321 -0.00855011 2.17477417 -0.01727295 C3.70650757 -0.02675096 5.23826162 -0.03326798 6.77001953 -0.03710938 C9.05931547 -0.04663422 11.34764103 -0.07754772 13.63671875 -0.109375 C31.45636201 -0.23777673 47.99343097 2.75834756 61.83203125 14.8046875 C66.04800136 19.14493791 68.76151532 24.17121569 71.4921875 29.515625 C71.85513916 30.22187012 72.21809082 30.92811523 72.59204102 31.65576172 C75.11728577 36.82783019 75.11728577 36.82783019 73.9921875 40.203125 C55.18487695 51.652946 26.02869243 51.37468516 4.9921875 49.328125 C4.16581787 49.24981445 3.33944824 49.17150391 2.48803711 49.09082031 C1.70565674 49.00670898 0.92327637 48.92259766 0.1171875 48.8359375 C-0.58148438 48.76262207 -1.28015625 48.68930664 -2 48.61376953 C-4.25308001 48.15296207 -5.97533227 47.25956868 -8.0078125 46.203125 C-8.03308312 39.81275269 -8.05064567 33.42239317 -8.06274414 27.03198242 C-8.06778558 24.85619627 -8.07461857 22.68041353 -8.08325195 20.50463867 C-8.09532588 17.38459433 -8.10104255 14.26459462 -8.10546875 11.14453125 C-8.11063004 10.16537247 -8.11579132 9.18621368 -8.12110901 8.17738342 C-8.12118454 7.27652512 -8.12126007 6.37566681 -8.12133789 5.44750977 C-8.1235585 4.65031021 -8.12577911 3.85311066 -8.12806702 3.03175354 C-7.84257825 -1.30947976 -3.37114569 0.02071892 0 0 Z " fill="#A2E23B" transform="translate(133.0078125,261.796875)"/>
<path d="M0 0 C8.58806111 -0.02255359 17.17609936 -0.04091657 25.76418209 -0.05181217 C29.751572 -0.05704036 33.73894067 -0.06413684 37.72631836 -0.07543945 C41.57125114 -0.08627061 45.41616345 -0.09227732 49.26111031 -0.09487724 C50.73118983 -0.09673108 52.20126818 -0.10035091 53.67133904 -0.10573006 C55.72354467 -0.11294355 57.77566467 -0.11399081 59.82788086 -0.11352539 C61.58327431 -0.11685631 61.58327431 -0.11685631 63.37413025 -0.12025452 C66 0 66 0 67 1 C67.09981214 3.6773138 67.13879875 6.32304175 67.125 9 C67.12886719 9.75023437 67.13273437 10.50046875 67.13671875 11.2734375 C67.12661053 16.87338947 67.12661053 16.87338947 66 18 C58.74 18 51.48 18 44 18 C44 40.11 44 62.22 44 85 C36.74 85 29.48 85 22 85 C22 62.89 22 40.78 22 18 C14.74 18 7.48 18 0 18 C0 12.06 0 6.12 0 0 Z " fill="#FEFEFE" transform="translate(409,136)"/>
<path d="M0 0 C6.93 0 13.86 0 21 0 C21 28.05 21 56.1 21 85 C13.74 85 6.48 85 -1 85 C-1.02255062 74.06503161 -1.04091485 63.13007854 -1.05181217 52.1950922 C-1.0570411 47.11808982 -1.06413892 42.04110411 -1.07543945 36.96411133 C-1.08626799 32.06879448 -1.09227676 27.17349371 -1.09487724 22.27816582 C-1.09673155 20.40617049 -1.10035228 18.53417609 -1.10573006 16.66218758 C-1.11294004 14.04959301 -1.11399096 11.43706573 -1.11352539 8.82446289 C-1.11712067 8.04259613 -1.12071594 7.26072937 -1.12442017 6.45516968 C-1.11405216 1.11405216 -1.11405216 1.11405216 0 0 Z " fill="#FEFEFE" transform="translate(656,136)"/>
<path d="M0 0 C1.82229335 2.73344002 2.48138215 4.29371448 3.25390625 7.38671875 C3.46853516 8.24330078 3.68316406 9.09988281 3.90429688 9.98242188 C4.12150391 10.87509766 4.33871094 11.76777344 4.5625 12.6875 C4.78357422 13.56083984 5.00464844 14.43417969 5.23242188 15.33398438 C7.8810661 26.04859049 8.24130041 36.44962058 8.25 47.4375 C8.25101212 48.58241409 8.25101212 48.58241409 8.25204468 49.75045776 C8.23650667 60.79740231 7.85789325 71.26855345 5 82 C4.82839355 82.67659668 4.65678711 83.35319336 4.47998047 84.05029297 C0.57134766 99.31107648 -4.82862477 114.09317103 -14 127 C-14.66 126.34 -15.32 125.68 -16 125 C-15.505 124.01 -15.505 124.01 -15 123 C-14.34 123 -13.68 123 -13 123 C-12.731875 122.29875 -12.46375 121.5975 -12.1875 120.875 C-10.93116907 117.8333567 -9.47153792 114.94307583 -8 112 C-4.72180666 104.91910239 -3.03958421 98.54343927 -2.5 90.8125 C-2.17198819 86.13286481 -1.8065666 81.47116854 -1.25 76.8125 C-1.13140625 75.74644531 -1.0128125 74.68039063 -0.890625 73.58203125 C-0.59671875 72.72996094 -0.3028125 71.87789063 0 71 C2.475 70.01 2.475 70.01 5 69 C5.33 54.81 5.66 40.62 6 26 C5.34 25.67 4.68 25.34 4 25 C4 23.68 4 22.36 4 21 C3.74946162 19.66868168 3.45565418 18.34496449 3.125 17.03125 C2.94453125 16.29519531 2.7640625 15.55914062 2.578125 14.80078125 C2.38734375 14.04152344 2.1965625 13.28226563 2 12.5 C1.62073992 10.99064739 1.24559623 9.48025321 0.875 7.96875 C0.70742188 7.30294922 0.53984375 6.63714844 0.3671875 5.95117188 C0 4 0 4 0 0 Z " fill="#6B863E" transform="translate(297,107)"/>
<path d="M0 0 C-0.433125 0.8353125 -0.433125 0.8353125 -0.875 1.6875 C-2.0413253 4.08494645 -3.0339881 6.51596939 -4 9 C-1.67145537 10.19838209 -1.67145537 10.19838209 1 11 C1.99 10.34 2.98 9.68 4 9 C4.18304688 9.62390625 4.36609375 10.2478125 4.5546875 10.890625 C5.91662203 13.34008964 5.91662203 13.34008964 9.2578125 14.046875 C11.17207031 14.39492187 11.17207031 14.39492187 13.125 14.75 C14.40632813 14.99234375 15.68765625 15.2346875 17.0078125 15.484375 C17.99523437 15.65453125 18.98265625 15.8246875 20 16 C20 16.66 20 17.32 20 18 C21.258125 18.0825 22.51625 18.165 23.8125 18.25 C27.74720748 18.72105653 27.74720748 18.72105653 29.8125 21 C30.4003125 21.99 30.4003125 21.99 31 23 C31.99 23.33 32.98 23.66 34 24 C34 24.66 34 25.32 34 26 C30.20770819 24.54035177 26.58965175 22.84105717 22.9375 21.0625 C10.32048646 15.2750083 -2.32812094 14.14832976 -16 13 C-16.625 11.1875 -16.625 11.1875 -17 9 C-14.54250112 5.31375168 -12.50994272 4.60898982 -8.5 2.8125 C-7.3346875 2.28269531 -6.169375 1.75289062 -4.96875 1.20703125 C-2 0 -2 0 0 0 Z " fill="#A5E43A" transform="translate(194,225)"/>
<path d="M0 0 C0.66 0 1.32 0 2 0 C2.99 3.3 3.98 6.6 5 10 C6.32 10 7.64 10 9 10 C9.29132812 10.99257812 9.58265625 11.98515625 9.8828125 13.0078125 C12.67197939 22.31655619 15.97642751 31.15090587 20 40 C19.01 40 18.02 40 17 40 C0 11.37022133 0 11.37022133 0 0 Z " fill="#6F8A41" transform="translate(9,195)"/>
<path d="M0 0 C0.33 0 0.66 0 1 0 C1.22921758 4.41583597 1.42945917 8.83255481 1.625 13.25 C1.68945312 14.48492187 1.75390625 15.71984375 1.8203125 16.9921875 C2.11765982 24.05418624 1.86229982 30.54852945 0.4934082 37.49072266 C0.05659149 39.71219824 -0.2225353 41.87386513 -0.4375 44.125 C-1.40886422 50.81662017 -2.81340169 56.63092735 -7 62 C-7.76313746 63.39865996 -8.49414255 64.81546735 -9.1875 66.25 C-9.53167969 66.95640625 -9.87585938 67.6628125 -10.23046875 68.390625 C-10.61138672 69.18726563 -10.61138672 69.18726563 -11 70 C-12.31704796 66.04885612 -11.30570578 64.62576733 -9.75 60.8125 C-9.31171875 59.72582031 -8.8734375 58.63914063 -8.421875 57.51953125 C-7.68696925 55.70043762 -6.95195149 53.88138865 -6.21533203 52.06298828 C-4.44039744 47.53464365 -3.17721531 43.05420805 -2.375 38.25 C-2.25020264 37.51281738 -2.12540527 36.77563477 -1.99682617 36.01611328 C-0.19685022 24.12695562 -0.23211855 12.00091358 0 0 Z " fill="#6C9629" transform="translate(295,160)"/>
<path d="M0 0 C0.33 0 0.66 0 1 0 C0.979375 0.94875 0.95875 1.8975 0.9375 2.875 C0.77448174 5.90666283 0.77448174 5.90666283 2 8 C1.34 8 0.68 8 0 8 C0.66 9.32 1.32 10.64 2 12 C1.54625 12.391875 1.0925 12.78375 0.625 13.1875 C-5.66906253 20.20780051 -5.20498723 32.93306627 -5.00390625 41.84765625 C-4.9951623 48.90402739 -5.56624302 55.95919469 -6 63 C-5.34 63.33 -4.68 63.66 -4 64 C-4.33 64.99 -4.66 65.98 -5 67 C-5.66 67 -6.32 67 -7 67 C-9.86254096 44.4574899 -7.4793271 21.46967555 0 0 Z " fill="#728B44" transform="translate(11,106)"/>
<path d="M0 0 C6.72983511 0.53594453 12.62333608 1.87718841 19 4.0625 C19.91064209 4.37195557 20.82128418 4.68141113 21.75952148 5.00024414 C35.20801894 9.69108944 47.45762955 15.63789732 59 24 C56.25700998 25.37149501 54.91518346 24.83290956 52 24 C49.6875 22.5625 49.6875 22.5625 48 21 C48 20.34 48 19.68 48 19 C47.278125 18.731875 46.55625 18.46375 45.8125 18.1875 C43 17 43 17 40.5625 15.4375 C37.68639376 13.82407455 35.22852046 13.51362825 32 13 C31.505 12.01 31.505 12.01 31 11 C25.13040516 8.30892278 19.36907246 6.89167014 13 6 C12.21625 5.505 11.4325 5.01 10.625 4.5 C6.89939969 2.37108554 3.22695607 2.26706258 -1 2 C-0.67 1.34 -0.34 0.68 0 0 Z " fill="#6C8342" transform="translate(182,7)"/>
<path d="M0 0 C0.66 0.33 1.32 0.66 2 1 C2.33 1.99 2.66 2.98 3 4 C6.25374924 5.03740882 6.25374924 5.03740882 10.0625 5.6875 C11.35285156 5.93886719 12.64320313 6.19023437 13.97265625 6.44921875 C14.97167969 6.63097656 15.97070312 6.81273437 17 7 C17 7.66 17 8.32 17 9 C18.258125 9.0825 19.51625 9.165 20.8125 9.25 C24.74720748 9.72105653 24.74720748 9.72105653 26.8125 12 C27.4003125 12.99 27.4003125 12.99 28 14 C28.99 14.33 29.98 14.66 31 15 C31 15.66 31 16.32 31 17 C27.20770819 15.54035177 23.58965175 13.84105717 19.9375 12.0625 C7.32048646 6.2750083 -5.32812094 5.14832976 -19 4 C-18.67 3.01 -18.34 2.02 -18 1 C-18 1.66 -18 2.32 -18 3 C-15.37405216 2.8863485 -12.74988453 2.75960946 -10.125 2.625 C-9.37863281 2.5940625 -8.63226563 2.563125 -7.86328125 2.53125 C-3.46526812 2.44356169 -3.46526812 2.44356169 0 0 Z " fill="#A5D84E" transform="translate(197,234)"/>
<path d="M0 0 C4.0858578 1.3619526 5.43204141 4.10320768 7.6875 7.5625 C8.12449219 8.22636719 8.56148438 8.89023438 9.01171875 9.57421875 C12.12662927 14.40957404 14.91539318 19.36294982 17.5 24.5 C17.82572998 25.14525635 18.15145996 25.7905127 18.48706055 26.45532227 C20.49364644 30.5777504 21.86140338 34.58224513 23 39 C20.10075884 37.55037942 19.68671126 35.54758474 18.375 32.625 C17.92898438 31.64789063 17.48296875 30.67078125 17.0234375 29.6640625 C16 27 16 27 16 24 C15.38125 23.773125 14.7625 23.54625 14.125 23.3125 C11.33381353 21.58853188 11.16413442 20.0336737 10 17 C9.05693068 15.2714774 8.07670777 13.5627656 7.0625 11.875 C6.55847656 11.02679688 6.05445313 10.17859375 5.53515625 9.3046875 C4.16376018 7.24584862 2.74889569 5.72362263 1 4 C0.3125 1.8125 0.3125 1.8125 0 0 Z " fill="#6B8241" transform="translate(272,62)"/>
<path d="M0 0 C-0.89605957 -0.00523682 -1.79211914 -0.01047363 -2.71533203 -0.01586914 C-6.1111722 -0.03313909 -9.50696421 -0.04555908 -12.90283203 -0.05493164 C-14.35921984 -0.05989187 -15.81560285 -0.06666215 -17.27197266 -0.07543945 C-34.10922621 -0.46045116 -34.10922621 -0.46045116 -50.625 2.125 C-53.92532837 2.98064069 -54.91274766 2.95718304 -58 2 C-54.26181693 -0.49212205 -50.91784915 -0.65841796 -46.5625 -1.0625 C-45.7257373 -1.14411377 -44.88897461 -1.22572754 -44.02685547 -1.30981445 C-7.12874145 -4.7524943 -7.12874145 -4.7524943 0 0 Z " fill="#689426" transform="translate(176,31)"/>
<path d="M0 0 C0.33 0 0.66 0 1 0 C1.66 2.64 2.32 5.28 3 8 C1.68 8 0.36 8 -1 8 C-1.33 9.65 -1.66 11.3 -2 13 C-2.66 13 -3.32 13 -4 13 C-3.67 13.99 -3.34 14.98 -3 16 C-3.48210937 16.36351562 -3.96421875 16.72703125 -4.4609375 17.1015625 C-8.57776088 20.37821784 -10.85437362 22.65374355 -12 28 C-12.99 28 -13.98 28 -15 28 C-13.52648479 23.91193985 -11.51915781 20.47271235 -9.1875 16.8125 C-5.7622473 11.36968611 -2.73317718 5.82114179 0 0 Z " fill="#AAE14C" transform="translate(266,144)"/>
<path d="M0 0 C3.65786455 3.36128094 6.1784694 6.34497737 8 11 C7.67 11.99 7.34 12.98 7 14 C4.03 13.505 4.03 13.505 1 13 C1 11.68 1 10.36 1 9 C0.01 9.33 -0.98 9.66 -2 10 C-2 6 -2 6 -0.5 4.25 C-0.005 3.8375 0.49 3.425 1 3 C0.67 2.01 0.34 1.02 0 0 Z " fill="#A6E046" transform="translate(197,281)"/>
<path d="M0 0 C1.41716517 4.2514955 -0.33105375 7.06504785 -2 11 C-2.47288452 12.13489868 -2.47288452 12.13489868 -2.95532227 13.29272461 C-5.6865437 19.65520603 -8.98360342 25.34774585 -13 31 C-13.66 30.34 -14.32 29.68 -15 29 C-14.67 28.34 -14.34 27.68 -14 27 C-13.34 27 -12.68 27 -12 27 C-11.731875 26.29875 -11.46375 25.5975 -11.1875 24.875 C-9.93116907 21.8333567 -8.47153792 18.94307583 -7 16 C-5.2575256 12.23625529 -3.85927089 8.65774765 -2.9375 4.625 C-2.628125 3.42875 -2.31875 2.2325 -2 1 C-1.34 0.67 -0.68 0.34 0 0 Z " fill="#718C44" transform="translate(296,203)"/>
<path d="M0 0 C0.33 0 0.66 0 1 0 C2.67245003 5.77755463 1.24780448 10.59456541 -1 16 C-1.97581759 17.35113205 -2.97585921 18.68511848 -4 20 C-4.76313746 21.39865996 -5.49414255 22.81546735 -6.1875 24.25 C-6.53167969 24.95640625 -6.87585938 25.6628125 -7.23046875 26.390625 C-7.48441406 26.92171875 -7.73835938 27.4528125 -8 28 C-9.30192843 24.09421472 -8.36713348 22.82371002 -6.8125 19.0625 C-4.28552037 12.78034393 -2.07798118 6.44290254 0 0 Z " fill="#658E27" transform="translate(292,202)"/>
<path d="M0 0 C-0.33 1.32 -0.66 2.64 -1 4 C-1.52335937 3.76410156 -2.04671875 3.52820313 -2.5859375 3.28515625 C-6.29972194 2.84647298 -8.44210131 4.5945801 -11.625 6.4375 C-17.78642857 10 -17.78642857 10 -20 10 C-20.33 10.66 -20.66 11.32 -21 12 C-22.97888961 12.72693904 -24.97954558 13.39816251 -27 14 C-23.54042696 10.0539245 -19.54539683 7.84532436 -15 5.375 C-14.2884375 4.98054688 -13.576875 4.58609375 -12.84375 4.1796875 C-10.90197146 3.10736204 -8.95806821 2.04228053 -7 1 C-6.32453125 0.6076416 -5.6490625 0.2152832 -4.953125 -0.18896484 C-3 -1 -3 -1 0 0 Z " fill="#718942" transform="translate(95,18)"/>
<path d="M0 0 C0.33 0.99 0.66 1.98 1 3 C-0.0828125 3.92232422 -0.0828125 3.92232422 -1.1875 4.86328125 C-2.115625 5.67152344 -3.04375 6.47976562 -4 7.3125 C-4.928125 8.11300781 -5.85625 8.91351563 -6.8125 9.73828125 C-9.3476073 11.83498271 -9.3476073 11.83498271 -9 15 C-9.99 15 -10.98 15 -12 15 C-12 16.32 -12 17.64 -12 19 C-15.05847848 19.54372951 -17.88772805 20 -21 20 C-20.154375 19.2265625 -19.30875 18.453125 -18.4375 17.65625 C-12.1587542 11.89695213 -5.94545018 6.10710895 0 0 Z " fill="#B1DE59" transform="translate(236,189)"/>
<path d="M0 0 C0.33 0.99 0.66 1.98 1 3 C-0.0828125 4.051875 -0.0828125 4.051875 -1.1875 5.125 C-3.10968351 7.03093971 -4.82596463 8.9992408 -6.5 11.125 C-8.91840137 13.90616158 -10.8152361 15.24837986 -14 17 C-15.68477344 18.31037934 -17.35648543 19.63823078 -19 21 C-17.36470886 17.03536974 -14.63226521 14.15726466 -11.75 11.0625 C-11.28464844 10.55009766 -10.81929687 10.03769531 -10.33984375 9.50976562 C-7.11634153 6.01541818 -3.7063649 2.97715406 0 0 Z " fill="#708741" transform="translate(56,40)"/>
<path d="M0 0 C0.66 0.99 1.32 1.98 2 3 C-0.75 7.875 -0.75 7.875 -3 9 C-3 8.34 -3 7.68 -3 7 C-6.12290635 7.48578543 -8.99580359 7.9986012 -12 9 C-12 8.34 -12 7.68 -12 7 C-10.390625 5.52734375 -10.390625 5.52734375 -8.25 3.9375 C-7.55390625 3.41027344 -6.8578125 2.88304687 -6.140625 2.33984375 C-4.04902334 1.03068432 -2.40999065 0.43966046 0 0 Z " fill="#668534" transform="translate(70,31)"/>
<path d="M0 0 C5.16064403 0.01770375 10.10706672 0.38986311 15.21484375 1.1328125 C15.21484375 1.4628125 15.21484375 1.7928125 15.21484375 2.1328125 C14.37953125 2.24496094 14.37953125 2.24496094 13.52734375 2.359375 C7.83373964 3.3403676 4.31853157 5.12593696 -0.05859375 8.890625 C-1.78515625 10.1328125 -1.78515625 10.1328125 -4.78515625 10.1328125 C-3.41015625 8.1328125 -3.41015625 8.1328125 -1.78515625 6.1328125 C-1.12515625 6.1328125 -0.46515625 6.1328125 0.21484375 6.1328125 C0.54484375 5.4728125 0.87484375 4.8128125 1.21484375 4.1328125 C1.87484375 3.4728125 2.53484375 2.8128125 3.21484375 2.1328125 C2.59609375 2.3390625 1.97734375 2.5453125 1.33984375 2.7578125 C0.63859375 2.8815625 -0.06265625 3.0053125 -0.78515625 3.1328125 C-1.44515625 2.4728125 -2.10515625 1.8128125 -2.78515625 1.1328125 C-1.78515625 0.1328125 -1.78515625 0.1328125 0 0 Z " fill="#A9E04F" transform="translate(83.78515625,57.8671875)"/>
<path d="M0 0 C0.59167969 0.40992187 1.18335937 0.81984375 1.79296875 1.2421875 C2.58316406 1.78101562 3.37335938 2.31984375 4.1875 2.875 C4.96480469 3.40867187 5.74210937 3.94234375 6.54296875 4.4921875 C11.12170082 7.30202944 14.96070088 8.27213412 20.3125 8.625 C21.91544922 8.73714844 21.91544922 8.73714844 23.55078125 8.8515625 C24.35902344 8.90054688 25.16726562 8.94953125 26 9 C21.74959711 11.83360193 17.98846654 11.41305774 13 11 C9.875 10 9.875 10 8 9 C8 8.34 8 7.68 8 7 C7.236875 6.9175 6.47375 6.835 5.6875 6.75 C2.45284809 5.84730645 1.64900735 4.86406539 0 2 C0 1.34 0 0.68 0 0 Z " fill="#AFE15A" transform="translate(81,102)"/>
<path d="M0 0 C-0.433125 0.8353125 -0.433125 0.8353125 -0.875 1.6875 C-2.0413253 4.08494645 -3.0339881 6.51596939 -4 9 C-4.86625 8.62875 -5.7325 8.2575 -6.625 7.875 C-10.55697326 6.85559952 -12.32937509 7.42687504 -16 9 C-15 6 -15 6 -12.12890625 4.39453125 C-10.95199219 3.87246094 -9.77507812 3.35039062 -8.5625 2.8125 C-7.38816406 2.28269531 -6.21382812 1.75289062 -5.00390625 1.20703125 C-2 0 -2 0 0 0 Z " fill="#A9DC4C" transform="translate(194,225)"/>
<path d="M0 0 C7.42857143 -0.14285714 7.42857143 -0.14285714 11 1 C11 1.66 11 2.32 11 3 C12.258125 3.0825 13.51625 3.165 14.8125 3.25 C18.74720748 3.72105653 18.74720748 3.72105653 20.8125 6 C21.204375 6.66 21.59625 7.32 22 8 C22.99 8.33 23.98 8.66 25 9 C25 9.66 25 10.32 25 11 C21.12024244 9.50001938 17.38152458 7.78457225 13.625 6 C9.11343691 3.90040764 4.84225351 2.12610547 0 1 C0 0.67 0 0.34 0 0 Z " fill="#B1E15C" transform="translate(203,240)"/>
<path d="M0 0 C2.07795976 3.88223701 3.61702663 7.95709786 5.1875 12.0625 C5.47302734 12.78244141 5.75855469 13.50238281 6.05273438 14.24414062 C8.11621347 19.65135958 8.11621347 19.65135958 7 23 C5.61904515 20.67927062 4.27159825 18.34747838 2.9375 16 C2.54755859 15.35160156 2.15761719 14.70320312 1.75585938 14.03515625 C-1.12488443 8.88550804 -1.22874708 5.76417477 0 0 Z " fill="#679128" transform="translate(18,208)"/>
<path d="M0 0 C-14.93948127 12 -14.93948127 12 -19 12 C-19 11.34 -19 10.68 -19 10 C-18.34 10 -17.68 10 -17 10 C-16.79375 9.38125 -16.5875 8.7625 -16.375 8.125 C-14.45904595 5.1639801 -12.28776532 5.07355602 -9 4 C-7.96854629 2.69084721 -6.96457834 1.35917857 -6 0 C-3.37169607 -1.03539246 -2.55664546 -1.27832273 0 0 Z " fill="#AEE04F" transform="translate(163,203)"/>
<path d="M0 0 C3.57355319 1.54688529 6.12558556 3.70537105 9 6.3125 C9.845625 7.07175781 10.69125 7.83101562 11.5625 8.61328125 C13.93931502 10.94057929 15.98139525 13.35992666 18 16 C16.125 16.625 16.125 16.625 14 17 C13.34 16.34 12.68 15.68 12 15 C12 14.34 12 13.68 12 13 C8.73294106 8.57986143 5.61485824 6.04161111 1 3 C0.67 2.01 0.34 1.02 0 0 Z " fill="#6E8544" transform="translate(245,35)"/>
<path d="M0 0 C5.59517659 1.43466066 10.64939283 4.20046974 15 8 C15 8.99 15 9.98 15 11 C10.02639643 9.72768281 7.32703078 7.91415386 4 4 C4 3.34 4 2.68 4 2 C3.01 2.33 2.02 2.66 1 3 C0.67 2.01 0.34 1.02 0 0 Z " fill="#B1E04B" transform="translate(178,267)"/>
<path d="M0 0 C-2.97 3.63 -5.94 7.26 -9 11 C-9.66 9.68 -10.32 8.36 -11 7 C-9.68 6.67 -8.36 6.34 -7 6 C-7 5.01 -7 4.02 -7 3 C-7.99 3.33 -8.98 3.66 -10 4 C-9.67 3.01 -9.34 2.02 -9 1 C-2.63157895 -1.31578947 -2.63157895 -1.31578947 0 0 Z " fill="#ABE24D" transform="translate(267,257)"/>
<path d="M0 0 C1 3 1 3 0.0390625 4.97265625 C-0.66089844 6.00712891 -0.66089844 6.00712891 -1.375 7.0625 C-1.83648437 7.75472656 -2.29796875 8.44695312 -2.7734375 9.16015625 C-3.17820312 9.76730469 -3.58296875 10.37445313 -4 11 C-4.33 11.66 -4.66 12.32 -5 13 C-5.66 13 -6.32 13 -7 13 C-7.66 14.98 -8.32 16.96 -9 19 C-9.66 18.67 -10.32 18.34 -11 18 C-9.48103632 13.56829827 -7.07360191 9.96975924 -4.375 6.1875 C-3.95476563 5.59001953 -3.53453125 4.99253906 -3.1015625 4.37695312 C-2.07220272 2.91479435 -1.0367177 1.45695101 0 0 Z " fill="#A0D646" transform="translate(41,86)"/>
<path d="M0 0 C0 3 0 3 -2 6 C-1.67 6.66 -1.34 7.32 -1 8 C-1.99 8.33 -2.98 8.66 -4 9 C-5.20882096 11.00016466 -5.20882096 11.00016466 -6 13 C-6.66 13 -7.32 13 -8 13 C-8.66 14.98 -9.32 16.96 -10 19 C-10.66 19 -11.32 19 -12 19 C-10.52590664 14.84643484 -8.4638429 11.458444 -6 7.8125 C-5.29875 6.76707031 -4.5975 5.72164063 -3.875 4.64453125 C-2 2 -2 2 0 0 Z " fill="#728A46" transform="translate(36,61)"/>
<path d="M0 0 C2.9375 1.25 2.9375 1.25 6 3 C6.75 5.125 6.75 5.125 7 7 C7.66 7.33 8.32 7.66 9 8 C8.67 8.66 8.34 9.32 8 10 C8.66 10 9.32 10 10 10 C10.33 11.32 10.66 12.64 11 14 C7.11807874 10.23225289 3.20468119 6.37202211 0 2 C0 1.34 0 0.68 0 0 Z " fill="#B1E455" transform="translate(37,249)"/>
<path d="M0 0 C0.66 0.66 1.32 1.32 2 2 C-1.3 5.96 -4.6 9.92 -8 14 C-8.33 12.68 -8.66 11.36 -9 10 C-8.01 10 -7.02 10 -6 10 C-5.938125 9.278125 -5.87625 8.55625 -5.8125 7.8125 C-4.75543353 4.15342375 -2.79449929 2.50788398 0 0 Z " fill="#ABE154" transform="translate(193,169)"/>
<path d="M0 0 C0 0.66 0 1.32 0 2 C-0.66 2 -1.32 2 -2 2 C-2.33 2.66 -2.66 3.32 -3 4 C-3.66 4.66 -4.32 5.32 -5 6 C-5.99 6 -6.98 6 -8 6 C-8 6.66 -8 7.32 -8 8 C-11 10 -11 10 -13.1875 9.625 C-13.785625 9.41875 -14.38375 9.2125 -15 9 C-12.87885041 7.49428254 -10.75346385 5.99531321 -8.625 4.5 C-8.02171875 4.07074219 -7.4184375 3.64148438 -6.796875 3.19921875 C-2.2265625 0 -2.2265625 0 0 0 Z " fill="#AEDD5B" transform="translate(209,215)"/>
<path d="M0 0 C0.61328125 1.8828125 0.61328125 1.8828125 1 4 C-0.31054623 5.35573748 -1.64748503 6.68612831 -3 8 C-4.26784124 11.13350717 -4.26784124 11.13350717 -5 14 C-5.99 14 -6.98 14 -8 14 C-6.6744419 10.37723685 -5.05653045 7.36494652 -2.875 4.1875 C-2.33617187 3.39730469 -1.79734375 2.60710937 -1.2421875 1.79296875 C-0.83226562 1.20128906 -0.42234375 0.60960937 0 0 Z " fill="#AFDE5B" transform="translate(259,158)"/>
<path d="M0 0 C0.66 0 1.32 0 2 0 C1.36934243 3.21852831 0.21979305 5.50801069 -1.5625 8.25 C-2.01753906 8.95640625 -2.47257812 9.6628125 -2.94140625 10.390625 C-3.29074219 10.92171875 -3.64007813 11.4528125 -4 12 C-5.4606285 9.35261084 -6 8.10551666 -6 5 C-5.01 5.33 -4.02 5.66 -3 6 C-2.01 4.02 -1.02 2.04 0 0 Z " fill="#97C44A" transform="translate(280,233)"/>
<path d="M0 0 C0.66 0 1.32 0 2 0 C2.66 4.62 3.32 9.24 4 14 C3.34 14 2.68 14 2 14 C0.09391902 10.78817851 -0.22266247 8.46117397 -0.125 4.75 C-0.09792969 3.41195312 -0.09792969 3.41195312 -0.0703125 2.046875 C-0.04710938 1.37140625 -0.02390625 0.6959375 0 0 Z " fill="#A9DF53" transform="translate(73,82)"/>
<path d="M0 0 C0.66 0.33 1.32 0.66 2 1 C0.68 4.3 -0.64 7.6 -2 11 C-2.66 10.67 -3.32 10.34 -4 10 C-4.625 7.9375 -4.625 7.9375 -5 6 C-4.34 6 -3.68 6 -3 6 C-2.87625 5.38125 -2.7525 4.7625 -2.625 4.125 C-2 2 -2 2 0 0 Z " fill="#A7E144" transform="translate(212,211)"/>
<path d="M0 0 C0.66 0.66 1.32 1.32 2 2 C1.625 4.625 1.625 4.625 1 7 C0.01 7.33 -0.98 7.66 -2 8 C-2.99 7.34 -3.98 6.68 -5 6 C-3.35 4.02 -1.7 2.04 0 0 Z " fill="#A8E24B" transform="translate(250,172)"/>
<path d="M0 0 C5.4611399 0.35233161 5.4611399 0.35233161 8 1 C9.5 3.0625 9.5 3.0625 10 5 C7.33333333 5 4.66666667 5 2 5 C2.33 4.34 2.66 3.68 3 3 C2.01 2.01 1.02 1.02 0 0 Z " fill="#A6E043" transform="translate(187,276)"/>
<path d="M0 0 C1.875 0.1875 1.875 0.1875 4 1 C5.25 3.5625 5.25 3.5625 6 6 C7.65 5.67 9.3 5.34 11 5 C9.68 6.32 8.36 7.64 7 9 C2.97449681 7.6581656 2.11714364 5.5772427 0 2 C0 1.34 0 0.68 0 0 Z " fill="#ABD857" transform="translate(243,266)"/>
<path d="M0 0 C0.66 0 1.32 0 2 0 C0.9318153 5.11365014 -0.23107476 10.07227969 -2 15 C-3.11563018 11.62953982 -2.86843709 9.25980759 -2.125 5.8125 C-1.94195312 4.93207031 -1.75890625 4.05164063 -1.5703125 3.14453125 C-1 1 -1 1 0 0 Z " fill="#AAD953" transform="translate(216,124)"/>
<path d="M0 0 C1.625 2 1.625 2 3 4 C2.01 4.495 2.01 4.495 1 5 C0.34786708 7.02463255 0.34786708 7.02463255 0 9 C-1.65 7.68 -3.3 6.36 -5 5 C-4.01 4.67 -3.02 4.34 -2 4 C-2.66 3.01 -3.32 2.02 -4 1 C-2 0 -2 0 0 0 Z " fill="#A7E048" transform="translate(117,56)"/>
<path d="M0 0 C0.680625 0.12375 1.36125 0.2475 2.0625 0.375 C1.0725 0.705 0.0825 1.035 -0.9375 1.375 C-0.9375 2.695 -0.9375 4.015 -0.9375 5.375 C-3.99597848 5.91872951 -6.82522805 6.375 -9.9375 6.375 C-3.86310175 0.49316193 -3.86310175 0.49316193 0 0 Z " fill="#ACE24D" transform="translate(224.9375,202.625)"/>
<path d="M0 0 C0.33 0.99 0.66 1.98 1 3 C1.66 3 2.32 3 3 3 C3.33 3.99 3.66 4.98 4 6 C3.195625 6.268125 2.39125 6.53625 1.5625 6.8125 C0.716875 7.204375 -0.12875 7.59625 -1 8 C-1.33 8.99 -1.66 9.98 -2 11 C-3 9 -3 9 -2.44140625 6.8359375 C-2.15136719 6.02382812 -1.86132812 5.21171875 -1.5625 4.375 C-1.27503906 3.55773437 -0.98757813 2.74046875 -0.69140625 1.8984375 C-0.46324219 1.27195313 -0.23507812 0.64546875 0 0 Z " fill="#A8DC50" transform="translate(272,129)"/>
<path d="M0 0 C3.21043882 1.38188453 5.04936365 2.92421903 7.25 5.625 C8.03117187 6.57246094 8.03117187 6.57246094 8.828125 7.5390625 C9.40820312 8.26222656 9.40820312 8.26222656 10 9 C7 9 7 9 5.3125 7.625 C4 6 4 6 4 4 C2.68 3.67 1.36 3.34 0 3 C0 2.01 0 1.02 0 0 Z " fill="#9DD446" transform="translate(252,70)"/>
<path d="M0 0 C2.35953094 2.35953094 2.49141413 3.77895617 3 7 C0.6875 8.5625 0.6875 8.5625 -2 10 C-2.99 9.67 -3.98 9.34 -5 9 C-4.34 9 -3.68 9 -3 9 C-3 8.34 -3 7.68 -3 7 C-2.34 6.34 -1.68 5.68 -1 5 C-0.35232207 2.42938689 -0.35232207 2.42938689 0 0 Z " fill="#ACDC58" transform="translate(205,294)"/>
<path d="M0 0 C2 2.5 2 2.5 4 5 C5.0828125 6.299375 5.0828125 6.299375 6.1875 7.625 C8 10 8 10 9 13 C8.01 13 7.02 13 6 13 C4.39453125 10.91796875 4.39453125 10.91796875 2.8125 8.1875 C2.28269531 7.29417969 1.75289062 6.40085938 1.20703125 5.48046875 C0 3 0 3 0 0 Z " fill="#7E9F42" transform="translate(20,222)"/>
<path d="M0 0 C3.94875582 1.31625194 4.54992713 3.05365398 6.6875 6.5625 C7.31011719 7.57441406 7.93273437 8.58632812 8.57421875 9.62890625 C9.04472656 10.41136719 9.51523437 11.19382812 10 12 C5.84615062 10.14006744 3.71456485 7.66833088 1 4 C0.1875 1.625 0.1875 1.625 0 0 Z " fill="#72854A" transform="translate(272,62)"/>
<path d="M0 0 C1.32 0.66 2.64 1.32 4 2 C0.535 4.97 0.535 4.97 -3 8 C-3.1875 5.125 -3.1875 5.125 -3 2 C-2.01 1.34 -1.02 0.68 0 0 Z " fill="#648D25" transform="translate(54,66)"/>
<path d="M0 0 C0.66 1.32 1.32 2.64 2 4 C1.38125 4.2475 0.7625 4.495 0.125 4.75 C-2.35068687 6.20628639 -2.95125002 7.37812506 -4 10 C-4.99 9.67 -5.98 9.34 -7 9 C-4.69 6.03 -2.38 3.06 0 0 Z " fill="#AFE05A" transform="translate(244,179)"/>
<path d="M0 0 C0.99 0.495 0.99 0.495 2 1 C2.6328125 3.28515625 2.6328125 3.28515625 3.125 6.0625 C3.29257812 6.98160156 3.46015625 7.90070313 3.6328125 8.84765625 C3.75398438 9.55792969 3.87515625 10.26820313 4 11 C3.01 11.495 3.01 11.495 2 12 C0.70756464 7.8803623 -0.26252625 4.33168317 0 0 Z " fill="#A2DB45" transform="translate(17,200)"/>
<path d="M0 0 C2.39073445 3.82517513 2.55966552 7.59665524 3 12 C2.01 11.67 1.02 11.34 0 11 C0.04125 10.05125 0.0825 9.1025 0.125 8.125 C0.34973818 4.89755144 0.34973818 4.89755144 -2 3 C-1.34 2.01 -0.68 1.02 0 0 Z " fill="#608823" transform="translate(14,194)"/>
<path d="M0 0 C0.66 0.33 1.32 0.66 2 1 C1 4 1 4 -0.75 5.0625 C-3.15793173 6.06580489 -5.56873057 7.05450633 -8 8 C-8 7.34 -8 6.68 -8 6 C-6.25 4.4921875 -6.25 4.4921875 -4 2.875 C-3.2575 2.33617187 -2.515 1.79734375 -1.75 1.2421875 C-1.1725 0.83226562 -0.595 0.42234375 0 0 Z " fill="#708943" transform="translate(66,32)"/>
<path d="M0 0 C0.99 0 1.98 0 3 0 C4.60546875 1.75 4.60546875 1.75 6.1875 4 C6.71730469 4.7425 7.24710937 5.485 7.79296875 6.25 C8.19128906 6.8275 8.58960938 7.405 9 8 C8.67 8.66 8.34 9.32 8 10 C6.66370254 8.52351062 5.33103329 7.0437367 4 5.5625 C3.2575 4.73878906 2.515 3.91507812 1.75 3.06640625 C0 1 0 1 0 0 Z " fill="#628D23" transform="translate(256,72)"/>
<path d="M0 0 C0.88336837 2.4667645 1.1312406 3.63859372 0.22265625 6.140625 C-0.16019531 6.83671875 -0.54304688 7.5328125 -0.9375 8.25 C-1.31777344 8.95640625 -1.69804687 9.6628125 -2.08984375 10.390625 C-2.39019531 10.92171875 -2.69054687 11.4528125 -3 12 C-3.33 12 -3.66 12 -4 12 C-4 10.02 -4 8.04 -4 6 C-3.01 5.67 -2.02 5.34 -1 5 C-0.67 3.35 -0.34 1.7 0 0 Z " fill="#649023" transform="translate(29,101)"/>
<path d="M0 0 C2.31 1.65 4.62 3.3 7 5 C6.34 5.66 5.68 6.32 5 7 C2.525 6.01 2.525 6.01 0 5 C0 3.35 0 1.7 0 0 Z " fill="#AEDD57" transform="translate(187,271)"/>
<path d="M0 0 C0 2.66666667 0 5.33333333 0 8 C-1.65 6.02 -3.3 4.04 -5 2 C-2 0 -2 0 0 0 Z " fill="#A8E052" transform="translate(242,258)"/>
<path d="M0 0 C0.66 0 1.32 0 2 0 C1.34 3.3 0.68 6.6 0 10 C-0.66 9.67 -1.32 9.34 -2 9 C-1.41196203 5.97580475 -0.77321882 2.98241547 0 0 Z " fill="#689426" transform="translate(17,130)"/>
<path d="M0 0 C0.598125 0.639375 1.19625 1.27875 1.8125 1.9375 C3.90810337 4.20310389 3.90810337 4.20310389 7 5 C7 5.66 7 6.32 7 7 C3.62496331 5.8141763 1.35277269 4.72426311 -1 2 C-0.67 1.34 -0.34 0.68 0 0 Z " fill="#AEE54F" transform="translate(221,244)"/>
<path d="M0 0 C2.89932357 2.39509338 3.50168276 4.31245243 4 8 C3.01 7.67 2.02 7.34 1 7 C0.67 4.69 0.34 2.38 0 0 Z " fill="#9DD446" transform="translate(283,115)"/>
<path d="M0 0 C0.6875 1.625 0.6875 1.625 1 4 C-0.4375 7.25 -0.4375 7.25 -2 10 C-2.66 10 -3.32 10 -4 10 C-3.52449439 8.51965236 -3.04448784 7.04074979 -2.5625 5.5625 C-2.29566406 4.73878906 -2.02882813 3.91507812 -1.75390625 3.06640625 C-1 1 -1 1 0 0 Z " fill="#9CD141" transform="translate(28,107)"/>
<path d="M0 0 C3.375 0.3125 3.375 0.3125 7 1 C7.66 1.99 8.32 2.98 9 4 C4.545 3.01 4.545 3.01 0 2 C0 1.34 0 0.68 0 0 Z " fill="#6D9927" transform="translate(190,33)"/>
<path d="M0 0 C3.7952131 1.49097658 5.61042731 3.75700849 8 7 C7.01 7 6.02 7 5 7 C0 1.53488372 0 1.53488372 0 0 Z " fill="#B0E058" transform="translate(48,263)"/>
<path d="M0 0 C3.16115776 1.36983503 3.9927092 1.9890638 6 5 C5.67 5.99 5.34 6.98 5 8 C4.16382818 6.8562364 3.33113541 5.70992861 2.5 4.5625 C2.0359375 3.92441406 1.571875 3.28632813 1.09375 2.62890625 C0 1 0 1 0 0 Z " fill="#98C54D" transform="translate(27,235)"/>
<path d="M0 0 C0.99 0.33 1.98 0.66 3 1 C3.33 3.97 3.66 6.94 4 10 C1.04816899 7.04816899 0.91336012 4.04488053 0 0 Z " fill="#638F21" transform="translate(285,116)"/>
<path d="M0 0 C4.42857143 5.14285714 4.42857143 5.14285714 5 9 C4.01 8.67 3.02 8.34 2 8 C2 6.68 2 5.36 2 4 C1.34 4 0.68 4 0 4 C0 2.68 0 1.36 0 0 Z " fill="#9DD445" transform="translate(276,100)"/>
<path d="M0 0 C0.66 0 1.32 0 2 0 C2.33 1.32 2.66 2.64 3 4 C3.66 4 4.32 4 5 4 C5.33 4.99 5.66 5.98 6 7 C5.01 8.485 5.01 8.485 4 10 C2.68 6.7 1.36 3.4 0 0 Z " fill="#AFDE5A" transform="translate(122,69)"/>
</svg>
