<svg version="1.1" id="Layer_1" xmlns="http://www.w3.org/2000/svg" xmlns:xlink="http://www.w3.org/1999/xlink" x="0px" y="0px"
	 width="100%" viewBox="0 0 622 213" enable-background="new 0 0 622 213" xml:space="preserve">
<path fill="#000000" opacity="1.000000" stroke="none" 
	d="
M394.000000,214.000000 
	C262.666687,214.000000 131.833359,214.000000 1.000035,214.000000 
	C1.000023,143.000031 1.000023,72.000046 1.000012,1.000054 
	C208.333298,1.000036 415.666595,1.000036 622.999878,1.000018 
	C622.999939,71.999947 622.999939,142.999893 623.000000,213.999908 
	C546.833313,214.000000 470.666656,214.000000 394.000000,214.000000 
M127.465172,139.086655 
	C127.273117,139.381500 127.081062,139.676346 126.248238,140.248367 
	C120.896561,143.645920 115.544884,147.043457 108.948257,151.231369 
	C113.399940,151.975739 116.430290,152.286270 119.357750,153.011902 
	C125.886719,154.630280 132.970840,155.282684 137.054810,162.550644 
	C137.361588,162.730209 137.668381,162.909775 137.981079,163.016006 
	C137.981079,163.016006 137.908676,163.029083 138.057144,163.556381 
	C138.363480,163.730759 138.669815,163.905136 138.990585,164.011108 
	C138.990585,164.011108 138.921890,164.024078 139.068710,164.549026 
	C139.372406,164.726364 139.676086,164.903702 139.988770,165.010971 
	C139.988770,165.010971 139.918854,165.021225 140.085419,165.534760 
	C140.384201,165.717010 140.682968,165.899261 140.988419,166.011200 
	C140.988419,166.011200 140.921982,166.035202 141.010056,166.729858 
	C143.387756,171.585617 144.540359,167.367996 146.015137,166.016769 
	C146.015137,166.016769 146.023682,166.090408 146.540161,165.923401 
	C146.721420,165.622391 146.902664,165.321396 147.012512,165.014221 
	C147.012512,165.014221 147.033676,165.082703 147.678177,164.962204 
	C148.440521,164.296539 149.202866,163.630859 150.494003,162.788193 
	C150.645493,162.460922 150.796967,162.133667 151.566116,161.829193 
	C152.068039,161.552078 152.569962,161.274979 153.690781,160.732346 
	C154.895905,159.219879 156.085831,157.695007 157.309006,156.197281 
	C160.875504,151.830292 164.455307,147.474152 168.501404,142.886154 
	C168.685760,142.598221 168.870117,142.310287 168.999039,142.003723 
	C168.999039,142.003723 169.025833,142.055695 169.485397,141.877197 
	C169.805618,141.673798 169.922516,141.387405 169.944931,140.547302 
	C169.944931,140.547302 170.010040,140.068527 170.435349,139.849533 
	C170.733887,139.651505 170.859299,139.374985 170.957428,138.581314 
	C170.957428,138.581314 171.026276,138.124207 171.452942,137.878906 
	C171.759293,137.669769 171.879929,137.382645 171.948166,136.557846 
	C171.948166,136.557846 172.020859,136.084747 172.578354,135.706192 
	C172.989746,134.469269 173.401138,133.232346 173.944901,131.555298 
	C173.944901,131.555298 174.035629,131.104752 174.626236,130.685501 
	C175.438385,128.127563 176.250534,125.569611 177.002960,123.000504 
	C177.002960,123.000504 177.033295,123.053131 177.587967,122.666229 
	C177.670837,121.791084 177.753693,120.915939 177.948700,119.572472 
	C177.948700,119.572472 178.029510,119.097740 178.625687,118.667946 
	C178.700577,117.463028 178.775467,116.258110 179.008484,114.223175 
	C179.651764,109.511566 180.939545,104.784035 180.823669,100.091171 
	C180.387085,82.409515 174.819626,66.160591 164.752243,51.760906 
	C155.479263,38.497448 142.963303,29.115942 127.486214,23.709957 
	C113.500061,18.824734 99.155243,17.400715 84.820251,20.293949 
	C76.284767,22.016666 68.235161,26.146755 59.476231,29.212185 
	C59.179398,29.391586 58.986359,29.648886 58.438095,30.040865 
	C58.438095,30.040865 57.988708,30.150286 57.481712,30.183424 
	C57.280720,30.448185 57.079727,30.712946 56.434658,31.045338 
	C56.434658,31.045338 56.002502,31.167870 55.360481,31.295563 
	C53.556374,32.854645 51.752266,34.413723 50.002338,35.995094 
	C50.002338,35.995094 49.975487,35.943020 49.327827,36.013584 
	C48.533169,36.664906 47.738514,37.316231 46.993393,38.001385 
	C46.993393,38.001385 46.983994,37.942139 46.488705,38.138470 
	C46.274204,38.416908 46.059708,38.695343 45.349453,39.202255 
	C44.892956,39.758793 44.436459,40.315331 43.506504,41.109489 
	C43.317142,41.399414 43.127777,41.689339 43.001369,41.989563 
	C43.001369,41.989563 42.962261,41.939171 42.431973,42.163422 
	C42.022842,42.773907 41.613716,43.384388 40.863438,44.592854 
	C6.901981,76.961365 12.308571,135.028305 47.235615,162.606705 
	C50.771030,165.411407 54.306446,168.216095 58.058529,171.527313 
	C58.364796,171.709213 58.671062,171.891098 58.991196,172.004272 
	C58.991196,172.004272 58.934490,172.045471 59.197861,172.696823 
	C60.627026,173.661636 62.056187,174.626465 64.114517,176.016052 
	C64.114517,150.023254 64.114517,124.665421 64.114517,98.850037 
	C71.410164,98.850037 78.211884,98.850037 85.431099,98.980637 
	C85.431099,98.980637 85.865814,99.029533 85.989235,99.957123 
	C86.063950,110.981071 86.138664,122.005013 85.869003,133.700943 
	C86.021568,137.046082 86.101044,140.398071 86.413986,143.728149 
	C86.455765,144.172729 87.850128,144.982437 88.327957,144.811584 
	C90.873848,143.901215 93.716415,143.210831 95.740570,141.564362 
	C102.037964,136.442017 108.267075,131.178741 114.015671,125.460457 
	C117.347336,122.146362 120.097984,118.071793 122.396935,113.942406 
	C125.021545,109.228065 126.853615,104.072487 129.958939,99.012566 
	C138.291214,99.049377 146.623489,99.086197 154.719055,99.799156 
	C151.153351,110.090668 146.099197,119.547592 138.463806,128.042099 
	C138.281158,128.352829 138.098511,128.663574 137.986099,128.987823 
	C137.986099,128.987823 137.973175,128.917496 137.450958,129.068878 
	C137.271225,129.370895 137.091507,129.672897 136.984085,129.984314 
	C136.984085,129.984314 136.974213,129.912064 136.451645,130.067856 
	C136.270203,130.370361 136.088760,130.672882 135.981216,130.982147 
	C135.981216,130.982147 135.974762,130.908234 135.449463,131.062897 
	C135.270325,131.367676 135.091171,131.672455 134.984787,131.983902 
	C134.984787,131.983902 134.975296,131.911469 134.448944,132.061707 
	C134.270996,132.366623 134.093048,132.671539 133.986313,132.986404 
	C133.986313,132.986404 133.975479,132.915329 133.448639,133.062408 
	C133.270844,133.367081 133.093048,133.671768 132.986389,133.986526 
	C132.986389,133.986526 132.975571,133.915527 132.448303,134.062729 
	C132.269485,134.367416 132.090683,134.672104 131.984192,134.985489 
	C131.984192,134.985489 131.976746,134.913025 131.451324,135.065079 
	C131.270584,135.368820 131.089844,135.672562 130.982727,135.982391 
	C130.982727,135.982391 130.974930,135.908936 130.456146,136.072052 
	C130.275482,136.373917 130.094818,136.675781 129.985870,136.986099 
	C129.985870,136.986099 129.976273,136.914505 129.456314,137.073059 
	C129.278717,137.375763 129.101105,137.678482 128.991943,137.990662 
	C128.991943,137.990662 128.979462,137.922714 128.468079,138.088135 
	C128.286453,138.385406 128.104828,138.682663 127.990883,138.992416 
	C127.990883,138.992416 127.980774,138.924347 127.465172,139.086655 
M112.942940,166.427338 
	C112.629059,166.328644 112.315178,166.229950 111.291145,165.780502 
	C103.173622,162.511139 94.774567,162.651917 86.211143,163.341629 
	C86.211143,170.669525 86.211143,177.620697 86.211143,184.927490 
	C98.518044,187.053696 110.461952,186.670151 122.096046,182.272690 
	C122.742020,182.028519 122.748077,180.091385 123.006592,178.999939 
	C123.006592,178.999939 123.079491,178.991165 122.987434,178.358383 
	C122.671890,177.878937 122.356346,177.399490 122.011299,176.997055 
	C122.011299,176.997055 122.084618,176.959335 121.995087,176.259842 
	C120.999969,174.791885 120.004852,173.323944 118.810974,171.341019 
	C118.244293,170.891998 117.677620,170.442978 116.844048,169.366470 
	C115.578423,168.544418 114.312790,167.722351 112.991470,166.957535 
	C112.991470,166.957535 113.071312,166.955673 112.942940,166.427338 
M413.991608,105.916229 
	C414.047302,114.947632 414.102966,123.979034 413.871826,133.664825 
	C411.496521,137.603821 408.737335,141.038071 403.419830,139.745178 
	C398.457306,138.538589 396.001068,134.756760 395.991699,128.748215 
	C395.977539,119.636665 395.988007,110.525085 395.988007,101.208412 
	C390.205536,101.208412 384.807465,101.208412 379.013367,101.208412 
	C379.013367,113.320847 378.680695,125.274330 379.225494,137.187683 
	C379.379669,140.559219 381.471924,144.346375 383.753845,147.023712 
	C391.199310,155.759537 402.616730,156.468781 413.811371,149.311249 
	C413.970703,150.570297 414.117218,151.727936 414.236877,152.673431 
	C420.367584,152.673431 426.109161,152.673431 431.686279,152.673431 
	C431.686279,135.287109 431.686279,118.231117 431.686279,101.255333 
	C425.619598,101.255333 419.865875,101.255333 414.152679,101.255333 
	C414.152679,102.671692 414.152679,103.830780 413.991608,105.916229 
M451.828705,151.987152 
	C461.124878,155.705338 469.808746,154.949982 477.825562,148.089767 
	C477.984619,149.916473 478.115570,151.420212 478.223480,152.659409 
	C484.102753,152.659409 489.504608,152.659409 494.686340,152.659409 
	C494.686340,129.604385 494.686340,106.892960 494.686340,84.308739 
	C488.972443,84.308739 483.575165,84.308739 477.781128,84.308739 
	C477.781128,91.612480 477.781128,98.611404 477.781128,105.967941 
	C467.233490,96.108833 448.153259,98.253510 441.670563,112.607727 
	C438.960632,118.608154 438.870636,124.596825 439.053802,130.746552 
	C439.323181,139.788666 443.515015,146.748062 451.828705,151.987152 
M307.534973,153.976135 
	C310.770630,153.650055 314.027588,153.463058 317.237701,152.970459 
	C325.221832,151.745316 332.359955,143.295639 332.993134,137.016449 
	C333.957367,127.453537 330.894653,121.745338 321.834961,117.435898 
	C316.066772,114.692131 310.083679,112.384300 304.129578,110.053139 
	C300.654907,108.692726 300.236267,105.694588 301.238281,103.189301 
	C301.851440,101.656258 304.642853,100.419312 306.618347,100.119789 
	C311.505524,99.378792 312.795380,103.086884 313.482117,107.000626 
	C316.729065,107.000626 319.722809,107.000633 322.716553,107.000633 
	C325.788696,107.000633 328.860840,107.000626 331.798492,107.000626 
	C333.224182,97.881287 325.427277,90.277451 318.630096,87.969238 
	C311.795837,85.648438 304.830536,85.152443 298.004944,87.114464 
	C288.207642,89.930702 284.060822,94.270752 282.076874,104.488693 
	C280.751160,111.316689 285.506958,119.032211 293.278473,122.617592 
	C299.208710,125.353477 305.549255,127.212578 311.423065,130.050049 
	C313.120239,130.869904 315.165649,134.213043 314.682434,135.530609 
	C313.983673,137.436005 311.265411,139.515045 309.164429,139.816315 
	C303.429565,140.638596 301.693848,138.976089 300.490356,133.220520 
	C294.370026,133.220520 288.246613,133.220520 282.121826,133.220520 
	C282.421661,145.762360 291.942413,153.826157 307.534973,153.976135 
M584.977844,124.687897 
	C584.309143,121.734726 584.142883,118.545357 582.884766,115.869278 
	C577.434082,104.275055 568.003784,99.506271 555.320984,99.920029 
	C543.713684,100.298714 533.630554,107.143219 530.504089,118.022575 
	C526.720520,131.188492 530.380676,143.121033 540.493652,149.579956 
	C550.496338,155.968475 561.668213,156.243179 572.253235,150.176376 
	C581.626892,144.803909 585.218811,136.115570 584.977844,124.687897 
M343.998749,98.306931 
	C344.321930,103.344322 339.890717,99.730858 338.216370,101.573547 
	C338.216370,105.819878 338.216370,110.234604 338.216370,115.025826 
	C340.166412,115.025826 341.906097,115.025826 344.001801,115.025826 
	C344.001801,122.689552 343.633545,130.004028 344.091522,137.266403 
	C344.716705,147.180069 346.802887,149.766144 354.997101,152.184952 
	C360.175140,153.713440 366.026093,152.962296 371.786316,153.243958 
	C371.786316,148.201035 371.786316,143.795502 371.786316,139.016190 
	C369.634491,139.016190 367.435944,139.581085 365.793854,138.866745 
	C363.930237,138.056061 361.327789,136.201202 361.199341,134.624878 
	C360.677917,128.225159 360.982544,121.758102 360.982544,114.924744 
	C364.855377,114.924744 368.270355,114.924744 371.763977,114.924744 
	C371.763977,110.117310 371.763977,105.714088 371.763977,100.924767 
	C368.131927,100.924767 364.714966,100.924767 360.923706,100.924767 
	C360.923706,96.469437 360.923706,92.386230 360.923706,88.235184 
	C355.119781,88.235184 349.718109,88.235184 343.998993,88.235184 
	C343.998993,91.427200 343.998993,94.388901 343.998749,98.306931 
M505.004364,123.500046 
	C505.004364,133.261032 505.004364,143.022018 505.004364,152.710876 
	C510.988464,152.710876 516.391235,152.710876 521.712891,152.710876 
	C521.712891,135.350922 521.712891,118.284172 521.712891,101.287781 
	C516.020325,101.287781 510.617249,101.287781 505.004364,101.287781 
	C505.004364,108.550026 505.004364,115.525078 505.004364,123.500046 
M511.829315,77.999153 
	C508.266968,78.490723 504.998627,79.836166 504.253143,83.617958 
	C503.497131,87.453209 503.137756,91.904808 507.018616,94.345062 
	C510.808441,96.728111 517.076782,96.946571 520.307861,94.187500 
	C523.474792,91.483154 525.156799,88.087799 523.606812,84.218185 
	C521.736633,79.549324 517.914124,77.281212 511.829315,77.999153 
z"/>
<path fill="#567921" opacity="1.000000" stroke="none" 
	d="
M46.862629,162.033813 
	C12.308571,135.028305 6.901981,76.961365 41.338341,44.241707 
	C42.196251,43.240097 42.579258,42.589634 42.962265,41.939171 
	C42.962261,41.939171 43.001369,41.989563 43.214294,41.876129 
	C43.611465,41.465752 43.795715,41.168812 43.979961,40.871868 
	C44.436459,40.315331 44.892956,39.758793 45.852669,38.997723 
	C46.565254,38.509506 46.774624,38.225822 46.983994,37.942139 
	C46.983994,37.942139 46.993393,38.001385 47.330971,37.991684 
	C48.437527,37.302330 49.206509,36.622673 49.975487,35.943020 
	C49.975487,35.943020 50.002338,35.995094 50.350574,35.990955 
	C52.466705,34.380501 54.234604,32.774185 56.002502,31.167870 
	C56.002502,31.167870 56.434658,31.045338 56.887093,30.940788 
	C57.637970,30.685226 57.854366,30.456573 57.988708,30.150286 
	C57.988708,30.150286 58.438095,30.040865 58.887993,29.943115 
	C59.623417,29.701683 59.833160,29.484751 59.967121,29.194565 
	C68.235161,26.146755 76.284767,22.016666 84.820251,20.293949 
	C99.155243,17.400715 113.500061,18.824734 127.486214,23.709957 
	C142.963303,29.115942 155.479263,38.497448 164.752243,51.760906 
	C174.819626,66.160591 180.387085,82.409515 180.823669,100.091171 
	C180.939545,104.784035 179.651764,109.511566 178.683929,114.890060 
	C178.249420,116.737213 178.139465,117.917480 178.029510,119.097740 
	C178.029510,119.097740 177.948700,119.572472 177.658936,120.031281 
	C177.257217,121.344429 177.145264,122.198784 177.033295,123.053131 
	C177.033295,123.053131 177.002960,123.000504 176.743225,123.191711 
	C174.583038,125.613075 171.846100,127.578056 174.035629,131.104752 
	C174.035629,131.104752 173.944901,131.555298 173.535370,131.859619 
	C172.757507,133.470886 172.389191,134.777817 172.020874,136.084747 
	C172.020859,136.084747 171.948166,136.557846 171.688049,136.921234 
	C171.197281,137.518143 171.063385,137.798019 171.026276,138.124207 
	C171.026276,138.124207 170.957428,138.581314 170.694839,138.926361 
	C170.204071,139.490768 170.063339,139.756470 170.010040,140.068527 
	C170.010040,140.068527 169.944931,140.547302 169.699005,140.905426 
	C169.221405,141.479446 169.078995,141.743500 169.025833,142.055695 
	C169.025833,142.055695 168.999039,142.003723 168.787811,142.121979 
	C168.394348,142.531403 168.212112,142.822571 168.029877,143.113754 
	C164.455307,147.474152 160.875504,151.830292 157.309006,156.197281 
	C156.085831,157.695007 154.895905,159.219879 153.018875,160.901306 
	C151.873871,161.180435 151.400757,161.290573 151.040375,161.051010 
	C151.640442,159.831039 152.076828,158.927338 152.622574,158.095383 
	C168.586456,133.759628 168.138947,105.808296 151.021927,82.160133 
	C129.924210,53.012383 88.505875,48.942326 61.917095,67.976685 
	C31.722919,89.592072 26.367510,130.196808 46.257004,158.835968 
	C46.822102,159.649658 46.676727,160.956772 46.862629,162.033813 
z"/>
<path fill="#A1E23A" opacity="1.000000" stroke="none" 
	d="
M47.049122,162.320251 
	C46.676727,160.956772 46.822102,159.649658 46.257004,158.835968 
	C26.367510,130.196808 31.722919,89.592072 61.917095,67.976685 
	C88.505875,48.942326 129.924210,53.012383 151.021927,82.160133 
	C168.138947,105.808296 168.586456,133.759628 152.622574,158.095383 
	C152.076828,158.927338 151.640442,159.831039 151.058136,161.149078 
	C150.963196,161.596848 150.948456,161.806412 150.948456,161.806412 
	C150.796967,162.133667 150.645493,162.460922 149.873734,162.891693 
	C148.513535,163.691010 147.773605,164.386856 147.033676,165.082703 
	C147.033676,165.082703 147.012512,165.014221 146.802124,165.117065 
	C146.402390,165.510086 146.213028,165.800247 146.023682,166.090408 
	C146.023682,166.090408 146.015137,166.016769 145.619400,166.014542 
	C143.789764,166.019943 142.355881,166.027573 140.921982,166.035217 
	C140.921982,166.035202 140.988419,166.011200 140.887421,165.800049 
	C140.497238,165.399689 140.208054,165.210449 139.918854,165.021225 
	C139.918854,165.021225 139.988770,165.010971 139.888107,164.799805 
	C139.498932,164.400436 139.210419,164.212250 138.921890,164.024078 
	C138.921890,164.024078 138.990585,164.011108 138.890106,163.796021 
	C138.495972,163.396973 138.202316,163.213028 137.908676,163.029083 
	C137.908676,163.029083 137.981079,163.016006 137.875671,162.804169 
	C137.474319,162.404251 137.178360,162.216171 136.882416,162.028091 
	C132.970840,155.282684 125.886719,154.630280 119.357750,153.011902 
	C116.430290,152.286270 113.399940,151.975739 108.948257,151.231369 
	C115.544884,147.043457 120.896561,143.645920 126.818062,140.015625 
	C127.585518,139.496689 127.783142,139.210526 127.980774,138.924347 
	C127.980774,138.924347 127.990883,138.992416 128.203445,138.890900 
	C128.603821,138.500488 128.791641,138.211594 128.979462,137.922714 
	C128.979462,137.922714 128.991943,137.990662 129.202820,137.886810 
	C129.601212,137.493469 129.788742,137.203995 129.976273,136.914505 
	C129.976273,136.914505 129.985870,136.986099 130.196869,136.883423 
	C130.596893,136.490143 130.785919,136.199539 130.974930,135.908936 
	C130.974930,135.908936 130.982727,135.982391 131.192810,135.881287 
	C131.594177,135.491150 131.785461,135.202087 131.976746,134.913025 
	C131.976746,134.913025 131.984192,134.985489 132.195892,134.885345 
	C132.596939,134.495300 132.786255,134.205414 132.975571,133.915527 
	C132.975571,133.915527 132.986389,133.986526 133.198090,133.885513 
	C133.598343,133.494766 133.786911,133.205048 133.975479,132.915329 
	C133.975479,132.915329 133.986313,132.986404 134.198303,132.884949 
	C134.598633,132.492828 134.786957,132.202148 134.975296,131.911469 
	C134.975296,131.911469 134.984787,131.983902 135.194931,131.881271 
	C135.594971,131.488510 135.784866,131.198364 135.974762,130.908234 
	C135.974762,130.908234 135.981216,130.982147 136.192215,130.881866 
	C136.593552,130.491745 136.783890,130.201904 136.974213,129.912064 
	C136.974213,129.912064 136.984085,129.984314 137.195023,129.884125 
	C137.595032,129.495117 137.784103,129.206299 137.973175,128.917496 
	C137.973175,128.917496 137.986099,128.987823 138.208038,128.881012 
	C138.616531,128.466827 138.803085,128.159424 138.989624,127.852036 
	C146.099197,119.547592 151.153351,110.090668 154.573761,99.136932 
	C148.321579,98.316978 142.214325,98.042198 136.107971,98.060600 
	C133.747635,98.067703 131.389313,98.739609 129.030075,99.108650 
	C126.853615,104.072487 125.021545,109.228065 122.396935,113.942406 
	C120.097984,118.071793 117.347336,122.146362 114.015671,125.460457 
	C108.267075,131.178741 102.037964,136.442017 95.740570,141.564362 
	C93.716415,143.210831 90.873848,143.901215 88.327957,144.811584 
	C87.850128,144.982437 86.455765,144.172729 86.413986,143.728149 
	C86.101044,140.398071 86.021568,137.046082 86.417145,133.242401 
	C87.288307,132.243439 87.889236,131.704971 87.893082,131.162277 
	C87.962456,121.364487 88.016060,111.565414 87.880592,101.769279 
	C87.867851,100.846916 86.568054,99.942360 85.865814,99.029533 
	C85.865814,99.029533 85.431099,98.980637 84.901192,98.650101 
	C78.560356,98.213097 72.739189,98.277771 66.942657,97.930809 
	C63.862633,97.746445 62.704956,99.287613 62.274071,101.807045 
	C61.996552,103.429733 62.023033,105.115257 62.021778,106.772697 
	C62.006523,126.912163 62.020554,147.051666 61.998161,167.191116 
	C61.995708,169.396866 62.760441,172.202225 58.934490,172.045471 
	C58.934490,172.045471 58.991196,172.004272 58.877472,171.786652 
	C58.456448,171.386292 58.149151,171.203552 57.841858,171.020798 
	C54.306446,168.216095 50.771030,165.411407 47.049122,162.320251 
M82.827644,72.660492 
	C82.686089,72.373734 82.469734,72.164238 81.771202,71.323730 
	C80.359009,70.964424 78.948914,70.596573 77.534264,70.247223 
	C70.201141,68.436348 61.871849,74.805061 62.013084,82.111320 
	C62.111549,87.204948 67.193642,93.182846 72.898567,94.915573 
	C76.034126,95.867920 82.094543,92.856171 85.424675,88.661674 
	C85.598396,88.076691 85.772118,87.491707 85.970650,86.985954 
	C85.970650,86.985954 85.895287,86.951126 86.692261,86.826111 
	C88.300407,83.414330 89.674515,80.021255 85.980217,77.007622 
	C85.980217,77.007622 85.957115,77.080589 85.987717,76.282501 
	C84.960686,75.205559 83.933655,74.128609 82.979584,73.022430 
	C82.979584,73.022430 82.963989,73.099472 82.827644,72.660492 
z"/>
<path fill="#FEFEFE" opacity="1.000000" stroke="none" 
	d="
M451.473572,151.817688 
	C443.515015,146.748062 439.323181,139.788666 439.053802,130.746552 
	C438.870636,124.596825 438.960632,118.608154 441.670563,112.607727 
	C448.153259,98.253510 467.233490,96.108833 477.781128,105.967941 
	C477.781128,98.611404 477.781128,91.612480 477.781128,84.308739 
	C483.575165,84.308739 488.972443,84.308739 494.686340,84.308739 
	C494.686340,106.892960 494.686340,129.604385 494.686340,152.659409 
	C489.504608,152.659409 484.102753,152.659409 478.223480,152.659409 
	C478.115570,151.420212 477.984619,149.916473 477.825562,148.089767 
	C469.808746,154.949982 461.124878,155.705338 451.473572,151.817688 
M477.007751,122.736404 
	C474.469635,116.047180 469.257751,113.179100 463.297607,115.191742 
	C457.845581,117.032784 454.694855,125.506683 457.011810,132.097519 
	C458.972351,137.674576 465.450134,140.585922 470.948975,138.620697 
	C475.227875,137.091431 479.562134,129.313187 477.007751,122.736404 
z"/>
<path fill="#FDFDFD" opacity="1.000000" stroke="none" 
	d="
M307.067261,153.976074 
	C291.942413,153.826157 282.421661,145.762360 282.121826,133.220520 
	C288.246613,133.220520 294.370026,133.220520 300.490356,133.220520 
	C301.693848,138.976089 303.429565,140.638596 309.164429,139.816315 
	C311.265411,139.515045 313.983673,137.436005 314.682434,135.530609 
	C315.165649,134.213043 313.120239,130.869904 311.423065,130.050049 
	C305.549255,127.212578 299.208710,125.353477 293.278473,122.617592 
	C285.506958,119.032211 280.751160,111.316689 282.076874,104.488693 
	C284.060822,94.270752 288.207642,89.930702 298.004944,87.114464 
	C304.830536,85.152443 311.795837,85.648438 318.630096,87.969238 
	C325.427277,90.277451 333.224182,97.881287 331.798492,107.000626 
	C328.860840,107.000626 325.788696,107.000633 322.716553,107.000633 
	C319.722809,107.000633 316.729065,107.000626 313.482117,107.000626 
	C312.795380,103.086884 311.505524,99.378792 306.618347,100.119789 
	C304.642853,100.419312 301.851440,101.656258 301.238281,103.189301 
	C300.236267,105.694588 300.654907,108.692726 304.129578,110.053139 
	C310.083679,112.384300 316.066772,114.692131 321.834961,117.435898 
	C330.894653,121.745338 333.957367,127.453537 332.993134,137.016449 
	C332.359955,143.295639 325.221832,151.745316 317.237701,152.970459 
	C314.027588,153.463058 310.770630,153.650055 307.067261,153.976074 
z"/>
<path fill="#FEFEFE" opacity="1.000000" stroke="none" 
	d="
M584.977051,125.144135 
	C585.218811,136.115570 581.626892,144.803909 572.253235,150.176376 
	C561.668213,156.243179 550.496338,155.968475 540.493652,149.579956 
	C530.380676,143.121033 526.720520,131.188492 530.504089,118.022575 
	C533.630554,107.143219 543.713684,100.298714 555.320984,99.920029 
	C568.003784,99.506271 577.434082,104.275055 582.884766,115.869278 
	C584.142883,118.545357 584.309143,121.734726 584.977051,125.144135 
M546.977722,125.711739 
	C546.979980,126.873543 546.858765,128.051102 547.004700,129.194565 
	C547.886475,136.102753 552.116882,139.970322 557.730591,139.076004 
	C566.423767,137.691086 569.668701,128.333282 565.192688,119.343521 
	C562.826294,114.590828 554.492493,112.622902 550.202515,117.505440 
	C548.520752,119.419518 548.017395,122.368988 546.977722,125.711739 
z"/>
<path fill="#FEFEFE" opacity="1.000000" stroke="none" 
	d="
M414.152679,104.989861 
	C414.152679,103.830780 414.152679,102.671692 414.152679,101.255333 
	C419.865875,101.255333 425.619598,101.255333 431.686279,101.255333 
	C431.686279,118.231117 431.686279,135.287109 431.686279,152.673431 
	C426.109161,152.673431 420.367584,152.673431 414.236877,152.673431 
	C414.117218,151.727936 413.970703,150.570297 413.811371,149.311249 
	C402.616730,156.468781 391.199310,155.759537 383.753845,147.023712 
	C381.471924,144.346375 379.379669,140.559219 379.225494,137.187683 
	C378.680695,125.274330 379.013367,113.320847 379.013367,101.208412 
	C384.807465,101.208412 390.205536,101.208412 395.988007,101.208412 
	C395.988007,110.525085 395.977539,119.636665 395.991699,128.748215 
	C396.001068,134.756760 398.457306,138.538589 403.419830,139.745178 
	C408.737335,141.038071 411.496521,137.603821 414.398315,133.227875 
	C415.263367,132.266876 415.891754,131.745682 415.896973,131.218323 
	C415.975220,123.300087 416.025940,115.380226 415.906372,107.463409 
	C415.893768,106.630257 414.764099,105.813972 414.152679,104.989861 
z"/>
<path fill="#FEFEFE" opacity="1.000000" stroke="none" 
	d="
M343.998871,97.828766 
	C343.998993,94.388901 343.998993,91.427200 343.998993,88.235184 
	C349.718109,88.235184 355.119781,88.235184 360.923706,88.235184 
	C360.923706,92.386230 360.923706,96.469437 360.923706,100.924767 
	C364.714966,100.924767 368.131927,100.924767 371.763977,100.924767 
	C371.763977,105.714088 371.763977,110.117310 371.763977,114.924744 
	C368.270355,114.924744 364.855377,114.924744 360.982544,114.924744 
	C360.982544,121.758102 360.677917,128.225159 361.199341,134.624878 
	C361.327789,136.201202 363.930237,138.056061 365.793854,138.866745 
	C367.435944,139.581085 369.634491,139.016190 371.786316,139.016190 
	C371.786316,143.795502 371.786316,148.201035 371.786316,153.243958 
	C366.026093,152.962296 360.175140,153.713440 354.997101,152.184952 
	C346.802887,149.766144 344.716705,147.180069 344.091522,137.266403 
	C343.633545,130.004028 344.001801,122.689552 344.001801,115.025826 
	C341.906097,115.025826 340.166412,115.025826 338.216370,115.025826 
	C338.216370,110.234604 338.216370,105.819878 338.216370,101.573547 
	C339.890717,99.730858 344.321930,103.344322 343.998871,97.828766 
z"/>
<path fill="#FEFEFE" opacity="1.000000" stroke="none" 
	d="
M505.004364,123.000084 
	C505.004364,115.525078 505.004364,108.550026 505.004364,101.287781 
	C510.617249,101.287781 516.020325,101.287781 521.712891,101.287781 
	C521.712891,118.284172 521.712891,135.350922 521.712891,152.710876 
	C516.391235,152.710876 510.988464,152.710876 505.004364,152.710876 
	C505.004364,143.022018 505.004364,133.261032 505.004364,123.000084 
z"/>
<path fill="#A1E339" opacity="1.000000" stroke="none" 
	d="
M117.110947,169.993958 
	C117.677620,170.442978 118.244293,170.891998 118.902481,172.018402 
	C119.035164,174.833908 118.562851,177.344269 122.084618,176.959335 
	C122.084618,176.959335 122.011299,176.997055 122.029449,177.272095 
	C122.391556,178.028473 122.735527,178.509827 123.079491,178.991165 
	C123.079491,178.991165 123.006592,178.999939 122.852402,179.291779 
	C121.904938,180.162262 121.190231,180.939682 120.306335,181.289017 
	C110.598763,185.125763 100.419914,183.964432 90.369080,183.816467 
	C89.560104,183.804581 88.191048,181.653137 88.100571,180.421158 
	C87.808960,176.450439 88.192291,172.431931 87.935867,168.456329 
	C87.708450,164.930420 89.021912,163.485336 92.483170,164.009537 
	C98.990181,164.995010 105.494064,166.001221 112.267685,166.998688 
	C112.714531,166.984253 112.892921,166.969955 113.071312,166.955673 
	C113.071312,166.955673 112.991470,166.957535 113.041489,167.298126 
	C114.431320,168.423813 115.771133,169.208878 117.110947,169.993958 
z"/>
<path fill="#FDFDFD" opacity="1.000000" stroke="none" 
	d="
M512.255981,77.998566 
	C517.914124,77.281212 521.736633,79.549324 523.606812,84.218185 
	C525.156799,88.087799 523.474792,91.483154 520.307861,94.187500 
	C517.076782,96.946571 510.808441,96.728111 507.018616,94.345062 
	C503.137756,91.904808 503.497131,87.453209 504.253143,83.617958 
	C504.998627,79.836166 508.266968,78.490723 512.255981,77.998566 
z"/>
<path fill="#A4D257" opacity="1.000000" stroke="none" 
	d="
M59.066177,172.371155 
	C62.760441,172.202225 61.995708,169.396866 61.998161,167.191116 
	C62.020554,147.051666 62.006523,126.912163 62.021778,106.772697 
	C62.023033,105.115257 61.996552,103.429733 62.274071,101.807045 
	C62.704956,99.287613 63.862633,97.746445 66.942657,97.930809 
	C72.739189,98.277771 78.560356,98.213097 84.692444,98.584801 
	C78.211884,98.850037 71.410164,98.850037 64.114517,98.850037 
	C64.114517,124.665421 64.114517,150.023254 64.114517,176.016052 
	C62.056187,174.626465 60.627026,173.661636 59.066177,172.371155 
z"/>
<path fill="#A5D353" opacity="1.000000" stroke="none" 
	d="
M111.999245,166.998825 
	C105.494064,166.001221 98.990181,164.995010 92.483170,164.009537 
	C89.021912,163.485336 87.708450,164.930420 87.935867,168.456329 
	C88.192291,172.431931 87.808960,176.450439 88.100571,180.421158 
	C88.191048,181.653137 89.560104,183.804581 90.369080,183.816467 
	C100.419914,183.964432 110.598763,185.125763 120.306335,181.289017 
	C121.190231,180.939682 121.904938,180.162262 122.875107,179.262939 
	C122.748077,180.091385 122.742020,182.028519 122.096046,182.272690 
	C110.461952,186.670151 98.518044,187.053696 86.211143,184.927490 
	C86.211143,177.620697 86.211143,170.669525 86.211143,163.341629 
	C94.774567,162.651917 103.173622,162.511139 111.645325,166.172272 
	C111.999504,166.564026 111.999245,166.998825 111.999245,166.998825 
z"/>
<path fill="#A4D257" opacity="1.000000" stroke="none" 
	d="
M85.927521,99.493332 
	C86.568054,99.942360 87.867851,100.846916 87.880592,101.769279 
	C88.016060,111.565414 87.962456,121.364487 87.893082,131.162277 
	C87.889236,131.704971 87.288307,132.243439 86.589333,132.906418 
	C86.138664,122.005013 86.063950,110.981071 85.927521,99.493332 
z"/>
<path fill="#F0F0F0" opacity="1.000000" stroke="none" 
	d="
M414.072144,105.453049 
	C414.764099,105.813972 415.893768,106.630257 415.906372,107.463409 
	C416.025940,115.380226 415.975220,123.300087 415.896973,131.218323 
	C415.891754,131.745682 415.263367,132.266876 414.541748,132.900681 
	C414.102966,123.979034 414.047302,114.947632 414.072144,105.453049 
z"/>
<path fill="#A8DA59" opacity="1.000000" stroke="none" 
	d="
M129.494507,99.060608 
	C131.389313,98.739609 133.747635,98.067703 136.107971,98.060600 
	C142.214325,98.042198 148.321579,98.316978 154.692108,98.798859 
	C146.623489,99.086197 138.291214,99.049377 129.494507,99.060608 
z"/>
<path fill="#577130" opacity="1.000000" stroke="none" 
	d="
M174.330933,130.895126 
	C171.846100,127.578056 174.583038,125.613075 176.773071,123.197296 
	C176.250534,125.569611 175.438385,128.127563 174.330933,130.895126 
z"/>
<path fill="#5C7134" opacity="1.000000" stroke="none" 
	d="
M55.681492,31.231716 
	C54.234604,32.774185 52.466705,34.380501 50.323486,35.979813 
	C51.752266,34.413723 53.556374,32.854645 55.681492,31.231716 
z"/>
<path fill="#A7D25B" opacity="1.000000" stroke="none" 
	d="
M140.966019,166.382538 
	C142.355881,166.027573 143.789764,166.019943 145.653717,166.028564 
	C144.540359,167.367996 143.387756,171.585617 140.966019,166.382538 
z"/>
<path fill="#A6D557" opacity="1.000000" stroke="none" 
	d="
M122.039856,176.609589 
	C118.562851,177.344269 119.035164,174.833908 119.001862,172.275894 
	C120.004852,173.323944 120.999969,174.791885 122.039856,176.609589 
z"/>
<path fill="#A6D557" opacity="1.000000" stroke="none" 
	d="
M116.977493,169.680206 
	C115.771133,169.208878 114.431320,168.423813 113.069336,167.269516 
	C114.312790,167.722351 115.578423,168.544418 116.977493,169.680206 
z"/>
<path fill="#577130" opacity="1.000000" stroke="none" 
	d="
M172.299622,135.895477 
	C172.389191,134.777817 172.757507,133.470886 173.469193,132.079681 
	C173.401138,133.232346 172.989746,134.469269 172.299622,135.895477 
z"/>
<path fill="#A7D25B" opacity="1.000000" stroke="none" 
	d="
M147.355927,165.022461 
	C147.773605,164.386856 148.513535,163.691010 149.609344,162.980194 
	C149.202866,163.630859 148.440521,164.296539 147.355927,165.022461 
z"/>
<path fill="#5C7134" opacity="1.000000" stroke="none" 
	d="
M49.651657,35.978302 
	C49.206509,36.622673 48.437527,37.302330 47.306202,37.974770 
	C47.738514,37.316231 48.533169,36.664906 49.651657,35.978302 
z"/>
<path fill="#577130" opacity="1.000000" stroke="none" 
	d="
M178.327606,118.882843 
	C178.139465,117.917480 178.249420,116.737213 178.604858,115.305069 
	C178.775467,116.258110 178.700577,117.463028 178.327606,118.882843 
z"/>
<path fill="#577130" opacity="1.000000" stroke="none" 
	d="
M177.310638,122.859680 
	C177.145264,122.198784 177.257217,121.344429 177.602875,120.265442 
	C177.753693,120.915939 177.670837,121.791084 177.310638,122.859680 
z"/>
<path fill="#5C7134" opacity="1.000000" stroke="none" 
	d="
M42.697121,42.051296 
	C42.579258,42.589634 42.196251,43.240097 41.508915,43.942719 
	C41.613716,43.384388 42.022842,42.773907 42.697121,42.051296 
z"/>
<path fill="#A6D557" opacity="1.000000" stroke="none" 
	d="
M123.033463,178.674774 
	C122.735527,178.509827 122.391556,178.028473 122.044205,177.233597 
	C122.356346,177.399490 122.671890,177.878937 123.033463,178.674774 
z"/>
<path fill="#A7D25B" opacity="1.000000" stroke="none" 
	d="
M151.257294,161.817810 
	C150.948456,161.806412 150.963196,161.596848 150.945435,161.498779 
	C151.400757,161.290573 151.873871,161.180435 152.709427,161.034088 
	C152.569962,161.274979 152.068039,161.552078 151.257294,161.817810 
z"/>
<path fill="#5C7134" opacity="1.000000" stroke="none" 
	d="
M59.721676,29.203377 
	C59.833160,29.484751 59.623417,29.701683 59.117500,29.914726 
	C58.986359,29.648886 59.179398,29.391586 59.721676,29.203377 
z"/>
<path fill="#577130" opacity="1.000000" stroke="none" 
	d="
M168.265640,142.999954 
	C168.212112,142.822571 168.394348,142.531403 168.815536,142.131287 
	C168.870117,142.310287 168.685760,142.598221 168.265640,142.999954 
z"/>
<path fill="#A7D25B" opacity="1.000000" stroke="none" 
	d="
M136.968613,162.289368 
	C137.178360,162.216171 137.474319,162.404251 137.872711,162.840820 
	C137.668381,162.909775 137.361588,162.730209 136.968613,162.289368 
z"/>
<path fill="#A7D25B" opacity="1.000000" stroke="none" 
	d="
M137.982910,163.292725 
	C138.202316,163.213028 138.495972,163.396973 138.882874,163.830215 
	C138.669815,163.905136 138.363480,163.730759 137.982910,163.292725 
z"/>
<path fill="#577130" opacity="1.000000" stroke="none" 
	d="
M169.255615,141.966446 
	C169.078995,141.743500 169.221405,141.479446 169.644562,141.140793 
	C169.922516,141.387405 169.805618,141.673798 169.255615,141.966446 
z"/>
<path fill="#5C7134" opacity="1.000000" stroke="none" 
	d="
M57.735210,30.166855 
	C57.854366,30.456573 57.637970,30.685226 57.109127,30.906975 
	C57.079727,30.712946 57.280720,30.448185 57.735210,30.166855 
z"/>
<path fill="#A7D25B" opacity="1.000000" stroke="none" 
	d="
M138.995300,164.286545 
	C139.210419,164.212250 139.498932,164.400436 139.883606,164.834839 
	C139.676086,164.903702 139.372406,164.726364 138.995300,164.286545 
z"/>
<path fill="#A7D25B" opacity="1.000000" stroke="none" 
	d="
M140.002136,165.277985 
	C140.208054,165.210449 140.497238,165.399689 140.884094,165.835220 
	C140.682968,165.899261 140.384201,165.717010 140.002136,165.277985 
z"/>
<path fill="#A7D25B" opacity="1.000000" stroke="none" 
	d="
M146.281921,166.006897 
	C146.213028,165.800247 146.402390,165.510086 146.837830,165.120148 
	C146.902664,165.321396 146.721420,165.622391 146.281921,166.006897 
z"/>
<path fill="#A6D557" opacity="1.000000" stroke="none" 
	d="
M112.267685,166.998688 
	C111.999245,166.998825 111.999504,166.564026 112.000397,166.347626 
	C112.315178,166.229950 112.629059,166.328644 113.007126,166.691498 
	C112.892921,166.969955 112.714531,166.984253 112.267685,166.998688 
z"/>
<path fill="#A4D257" opacity="1.000000" stroke="none" 
	d="
M57.950191,171.274048 
	C58.149151,171.203552 58.456448,171.386292 58.870537,171.821014 
	C58.671062,171.891098 58.364796,171.709213 57.950191,171.274048 
z"/>
<path fill="#A8D45B" opacity="1.000000" stroke="none" 
	d="
M133.712067,132.988861 
	C133.786911,133.205048 133.598343,133.494766 133.162521,133.880478 
	C133.093048,133.671768 133.270844,133.367081 133.712067,132.988861 
z"/>
<path fill="#5C7134" opacity="1.000000" stroke="none" 
	d="
M43.743233,40.990677 
	C43.795715,41.168812 43.611465,41.465752 43.182816,41.870979 
	C43.127777,41.689339 43.317142,41.399414 43.743233,40.990677 
z"/>
<path fill="#5C7134" opacity="1.000000" stroke="none" 
	d="
M46.736351,38.040306 
	C46.774624,38.225822 46.565254,38.509506 46.100544,38.883484 
	C46.059708,38.695343 46.274204,38.416908 46.736351,38.040306 
z"/>
<path fill="#A8D45B" opacity="1.000000" stroke="none" 
	d="
M138.726715,127.947067 
	C138.803085,128.159424 138.616531,128.466827 138.172928,128.874268 
	C138.098511,128.663574 138.281158,128.352829 138.726715,127.947067 
z"/>
<path fill="#A8D45B" opacity="1.000000" stroke="none" 
	d="
M137.712067,128.993195 
	C137.784103,129.206299 137.595032,129.495117 137.158875,129.879425 
	C137.091507,129.672897 137.271225,129.370895 137.712067,128.993195 
z"/>
<path fill="#A8D45B" opacity="1.000000" stroke="none" 
	d="
M136.712936,129.989960 
	C136.783890,130.201904 136.593552,130.491745 136.155273,130.878479 
	C136.088760,130.672882 136.270203,130.370361 136.712936,129.989960 
z"/>
<path fill="#A8D45B" opacity="1.000000" stroke="none" 
	d="
M135.712112,130.985565 
	C135.784866,131.198364 135.594971,131.488510 135.158554,131.877930 
	C135.091171,131.672455 135.270325,131.367676 135.712112,130.985565 
z"/>
<path fill="#A8D45B" opacity="1.000000" stroke="none" 
	d="
M134.712128,131.986588 
	C134.786957,132.202148 134.598633,132.492828 134.162720,132.879974 
	C134.093048,132.671539 134.270996,132.366623 134.712128,131.986588 
z"/>
<path fill="#577130" opacity="1.000000" stroke="none" 
	d="
M170.222687,139.959030 
	C170.063339,139.756470 170.204071,139.490768 170.621918,139.145691 
	C170.859299,139.374985 170.733887,139.651505 170.222687,139.959030 
z"/>
<path fill="#A8D45B" opacity="1.000000" stroke="none" 
	d="
M132.711945,133.989136 
	C132.786255,134.205414 132.596939,134.495300 132.159729,134.880981 
	C132.090683,134.672104 132.269485,134.367416 132.711945,133.989136 
z"/>
<path fill="#A8D45B" opacity="1.000000" stroke="none" 
	d="
M131.714035,134.989044 
	C131.785461,135.202087 131.594177,135.491150 131.156006,135.878265 
	C131.089844,135.672562 131.270584,135.368820 131.714035,134.989044 
z"/>
<path fill="#A8D45B" opacity="1.000000" stroke="none" 
	d="
M130.715546,135.990494 
	C130.785919,136.199539 130.596893,136.490143 130.161011,136.879181 
	C130.094818,136.675781 130.275482,136.373917 130.715546,135.990494 
z"/>
<path fill="#A8D45B" opacity="1.000000" stroke="none" 
	d="
M129.716293,136.993774 
	C129.788742,137.203995 129.601212,137.493469 129.168594,137.882080 
	C129.101105,137.678482 129.278717,137.375763 129.716293,136.993774 
z"/>
<path fill="#577130" opacity="1.000000" stroke="none" 
	d="
M171.239609,138.001556 
	C171.063385,137.798019 171.197281,137.518143 171.621399,137.151093 
	C171.879929,137.382645 171.759293,137.669769 171.239609,138.001556 
z"/>
<path fill="#A8D45B" opacity="1.000000" stroke="none" 
	d="
M128.723770,138.005432 
	C128.791641,138.211594 128.603821,138.500488 128.169601,138.884659 
	C128.104828,138.682663 128.286453,138.385406 128.723770,138.005432 
z"/>
<path fill="#A8D45B" opacity="1.000000" stroke="none" 
	d="
M127.722977,139.005493 
	C127.783142,139.210526 127.585518,139.496689 127.138443,139.877029 
	C127.081062,139.676346 127.273117,139.381500 127.722977,139.005493 
z"/>
<path fill="#000000" opacity="1.000000" stroke="none" 
	d="
M84.872238,88.965202 
	C82.094543,92.856171 76.034126,95.867920 72.898567,94.915573 
	C67.193642,93.182846 62.111549,87.204948 62.013084,82.111320 
	C61.871849,74.805061 70.201141,68.436348 77.534264,70.247223 
	C78.948914,70.596573 80.359009,70.964424 81.946747,71.935219 
	C82.402855,72.730965 82.683418,72.915215 82.963989,73.099472 
	C82.963989,73.099472 82.979584,73.022430 83.066055,73.343475 
	C84.087387,74.803207 85.022255,75.941895 85.957115,77.080589 
	C85.957115,77.080589 85.980217,77.007622 86.003609,77.421341 
	C85.983093,80.873756 85.939194,83.912437 85.895287,86.951126 
	C85.895287,86.951126 85.970650,86.985954 85.662796,87.067467 
	C85.194031,87.754387 85.033134,88.359795 84.872238,88.965202 
z"/>
<path fill="#AADA54" opacity="1.000000" stroke="none" 
	d="
M86.293777,86.888618 
	C85.939194,83.912437 85.983093,80.873756 85.968643,77.436890 
	C89.674515,80.021255 88.300407,83.414330 86.293777,86.888618 
z"/>
<path fill="#AADA54" opacity="1.000000" stroke="none" 
	d="
M85.972412,76.681549 
	C85.022255,75.941895 84.087387,74.803207 83.029572,73.358093 
	C83.933655,74.128609 84.960686,75.205559 85.972412,76.681549 
z"/>
<path fill="#AADA54" opacity="1.000000" stroke="none" 
	d="
M85.148453,88.813438 
	C85.033134,88.359795 85.194031,87.754387 85.650391,87.027847 
	C85.772118,87.491707 85.598396,88.076691 85.148453,88.813438 
z"/>
<path fill="#AADA54" opacity="1.000000" stroke="none" 
	d="
M82.895813,72.879982 
	C82.683418,72.915215 82.402855,72.730965 82.150429,72.289352 
	C82.469734,72.164238 82.686089,72.373734 82.895813,72.879982 
z"/>
<path fill="#000000" opacity="1.000000" stroke="none" 
	d="
M477.011932,123.148605 
	C479.562134,129.313187 475.227875,137.091431 470.948975,138.620697 
	C465.450134,140.585922 458.972351,137.674576 457.011810,132.097519 
	C454.694855,125.506683 457.845581,117.032784 463.297607,115.191742 
	C469.257751,113.179100 474.469635,116.047180 477.011932,123.148605 
z"/>
<path fill="#000000" opacity="1.000000" stroke="none" 
	d="
M546.977539,125.279327 
	C548.017395,122.368988 548.520752,119.419518 550.202515,117.505440 
	C554.492493,112.622902 562.826294,114.590828 565.192688,119.343521 
	C569.668701,128.333282 566.423767,137.691086 557.730591,139.076004 
	C552.116882,139.970322 547.886475,136.102753 547.004700,129.194565 
	C546.858765,128.051102 546.979980,126.873543 546.977539,125.279327 
z"/>
</svg>